<?xml version="1.0" encoding="utf-8"?>
<!-- Generator: Adobe Illustrator 27.5.0, SVG Export Plug-In . SVG Version: 6.00 Build 0)  -->
<svg version="1.1" id="Camada_1" xmlns="http://www.w3.org/2000/svg" xmlns:xlink="http://www.w3.org/1999/xlink" x="0px" y="0px"
	 viewBox="0 0 500 500" style="enable-background:new 0 0 500 500;" xml:space="preserve">
<style type="text/css">
	.st0{fill:#6D26C2;}
</style>
<g>
	<path class="st0" d="M212.79,476.89c-53.17,0-106.33,0.01-159.5,0c-19.81,0-31-11.16-31-30.92c-0.01-70.51,0.25-141.01-0.18-211.52
		c-0.11-17.81,13.07-31.72,31.37-31.07c14.31,0.51,28.66-0.04,42.99,0.19c4.15,0.06,7.09-1.11,10.06-4.09
		c54.95-55.13,110.01-110.15,165.05-165.18c8.88-8.88,19.44-11.68,31.06-6.97c4.89,1.99,9.35,5.72,13.21,9.48
		c16.39,16.01,32.51,32.29,48.67,48.53c17.45,17.53,34.82,35.15,52.27,52.68c16.39,16.48,33.03,32.71,49.21,49.4
		c11.07,11.42,10.67,28.13-0.55,39.46c-19.24,19.42-38.58,38.73-58.01,57.96c-2.57,2.55-3.63,5.1-3.62,8.74
		c0.11,51,0.08,102.01,0.07,153.01c0,18.83-11.37,30.29-30.11,30.3C320.12,476.9,266.45,476.89,212.79,476.89z M213.16,455.54
		c53,0,105.99,0,158.99,0c8.95,0,10.41-1.47,10.41-10.46c0-69.84,0-139.67,0-209.51c0-9.1-1.65-10.74-10.77-10.74
		c-105.82,0-211.65,0-317.47,0c-9.03,0-10.68,1.67-10.68,10.87c-0.01,69.84-0.01,139.67,0,209.51c0,8.89,1.47,10.33,10.54,10.33
		C107.17,455.54,160.16,455.54,213.16,455.54z M364.12,114.93c-29.95,29.88-59.34,59.2-88.74,88.53c1.39,0,3.34,0,5.29,0
		c31.17,0,62.34-0.05,93.5,0.02c17.89,0.04,29.67,11.98,29.73,29.88c0.02,6.67-0.02,13.34,0.03,20c0.01,1.2,0.3,2.39,0.55,4.27
		c1.92-1.78,3.29-2.97,4.57-4.25c13.31-13.32,26.63-26.63,39.88-40.01c5.03-5.08,4.89-8.37-0.3-13.57
		c-13.3-13.33-26.64-26.64-39.92-39.98C393.55,144.59,378.42,129.33,364.12,114.93z M314.96,66.73c-0.35-0.58-0.52-1.07-0.85-1.4
		c-5.27-5.33-10.52-10.68-15.87-15.93c-3.97-3.9-7.57-3.9-11.78,0.02c-3.41,3.18-6.65,6.53-9.95,9.83
		c-46.99,46.98-93.98,93.96-140.94,140.97c-0.71,0.71-1.14,1.7-2.13,3.24c13.8,0,26.76-0.13,39.73,0.08
		c3.82,0.06,6.49-1.14,9.16-3.82c43.15-43.3,86.39-86.5,129.61-129.73C312.98,68.95,313.95,67.82,314.96,66.73z"/>
	<path class="st0" d="M100.85,320.99c-18.47-0.1-33.13-15.09-32.91-33.66c0.21-18.33,15.37-33.13,33.77-32.99
		c18.09,0.14,33.19,15.64,33,33.87C134.53,306.58,119.54,321.09,100.85,320.99z"/>
	<path class="st0" d="M133.58,408.37c18.64,0,37.29-0.02,55.93,0.01c7.8,0.01,12.78,4.34,12.65,10.92
		c-0.12,6.35-5.03,10.49-12.58,10.5c-37.62,0.02-75.24,0.02-112.86,0c-7.59,0-12.36-4.19-12.39-10.67
		c-0.03-6.48,4.77-10.72,12.32-10.73C95.62,408.35,114.6,408.37,133.58,408.37z"/>
	<path class="st0" d="M319.56,287.88c0-9.33,0.07-18.65-0.03-27.98c-0.04-3.96,1.45-5.94,5.62-5.6c4.62,0.38,9.39-0.04,13.85,0.98
		c8.47,1.94,13.89,9.13,14.01,17.8c0.14,9.82,0.18,19.65-0.01,29.47c-0.21,10.54-7.92,18.33-18.44,18.37
		c-17.46,0.07-14.79,2.21-14.99-14.56C319.49,300.21,319.55,294.05,319.56,287.88z"/>
	<path class="st0" d="M305.88,287.96c0,9.31-0.15,18.62,0.07,27.93c0.09,3.98-1.42,5.42-5.25,5.15c-2.81-0.2-5.65-0.01-8.48-0.04
		c-11.54-0.13-19.7-8.23-19.82-19.81c-0.09-8.98-0.09-17.96,0-26.93c0.12-11.3,8.6-19.74,19.89-19.91c2.99-0.04,5.99,0.14,8.97-0.05
		c3.53-0.22,4.88,1.39,4.6,4.73c-0.01,0.17,0,0.33,0,0.5C305.88,269,305.88,278.48,305.88,287.96z"/>
	<path class="st0" d="M252.89,359.36c5.83,0,11.66-0.06,17.5,0.02c7.09,0.1,11.78,4.55,11.65,10.91
		c-0.12,6.15-4.71,10.42-11.59,10.47c-11.66,0.09-23.33,0.1-34.99,0c-6.73-0.06-11.38-4.54-11.39-10.66
		c-0.02-6.18,4.58-10.6,11.33-10.71C241.23,359.29,247.06,359.37,252.89,359.36z"/>
	<path class="st0" d="M172.98,380.78c-5.83,0-11.67,0.09-17.5-0.02c-6.77-0.14-11.36-4.58-11.34-10.73
		c0.02-6.12,4.65-10.57,11.43-10.63c11.83-0.1,23.66-0.11,35.49,0.01c6.42,0.06,10.99,4.55,11.09,10.47
		c0.1,6.14-4.54,10.76-11.19,10.89C184.98,380.88,178.98,380.78,172.98,380.78z"/>
	<path class="st0" d="M93.56,359.37c5.83,0,11.66-0.09,17.48,0.02c6.7,0.13,11.23,4.6,11.16,10.83
		c-0.07,6.03-4.48,10.46-10.94,10.53c-11.99,0.13-23.98,0.14-35.96-0.01c-6.42-0.08-10.91-4.61-10.97-10.56
		c-0.06-6.15,4.54-10.66,11.25-10.79C81.57,359.28,87.57,359.37,93.56,359.37z"/>
	<path class="st0" d="M332.84,380.79c-5.83,0-11.66,0.08-17.48-0.02c-6.85-0.11-11.3-4.36-11.33-10.64
		c-0.03-6.28,4.41-10.68,11.21-10.74c11.82-0.1,23.65-0.11,35.47,0.01c6.67,0.07,11.24,4.67,11.15,10.86
		c-0.09,5.94-4.6,10.34-11.03,10.49C344.84,380.89,338.84,380.78,332.84,380.79z"/>
	<path class="st0" d="M333.1,429.8c-5.99,0-11.99,0.09-17.98-0.02c-6.74-0.13-11.16-4.57-11.08-10.87
		c0.08-6.06,4.45-10.42,10.95-10.49c11.99-0.12,23.98-0.13,35.97,0.01c6.37,0.07,10.87,4.64,10.9,10.6
		c0.03,5.97-4.41,10.55-10.78,10.74C345.09,429.93,339.09,429.79,333.1,429.8z"/>
</g>
</svg>
