<?xml version="1.0" encoding="utf-8"?>
<!-- Generator: Adobe Illustrator 27.5.0, SVG Export Plug-In . SVG Version: 6.00 Build 0)  -->
<svg version="1.1" id="Camada_1" xmlns="http://www.w3.org/2000/svg" xmlns:xlink="http://www.w3.org/1999/xlink" x="0px" y="0px"
	 viewBox="0 0 500 500" style="enable-background:new 0 0 500 500;" xml:space="preserve">
<style type="text/css">
	.st0{fill:#6D26C2;}
</style>
<g>
	<path class="st0" d="M373.77,460.05c4.18,0,7.48,0,11.57,0c0-2.43,0-4.68,0-6.94c0-91.83,0-183.65,0-275.48
		c0-10.61,5.1-16.18,15.74-16.27c22.66-0.19,45.33-0.21,67.99,0.01c10.7,0.1,15.61,5.7,15.62,16.99
		c0.04,38.5,0.01,76.99,0.01,115.49c0,58.16,0,116.32,0,174.49c0,1.33,0.06,2.67-0.02,4c-0.56,9.84-5.55,14.77-15.43,15.25
		c-1.16,0.06-2.33,0.01-3.5,0.01c-144.16,0-288.31,0-432.47,0c-1.17,0-2.34,0.04-3.5-0.01c-9.89-0.49-14.87-5.42-15.41-15.27
		c-0.07-1.33-0.02-2.67-0.02-4c0-143.99-0.01-287.98,0.03-431.97c0-2.8,0.31-5.64,0.86-8.39c1.3-6.51,6.87-10.81,13.24-10.46
		c6.92,0.38,12.84,6.02,13.21,12.65c0.09,1.66,0.02,3.33,0.02,5c0,139.16,0,278.31,0,417.47c0,2.3,0,4.6,0,7.26
		c3.85,0,7.26,0,11.57,0c0-2.08,0-4.16,0-6.25c0-38,0.27-76-0.16-113.99c-0.13-11.72,6.81-16.07,15.2-16.17
		c22.99-0.28,46-0.34,68.99,0.02c10.57,0.16,14.9,5.56,14.91,17.03c0.05,37.33,0.02,74.66,0.02,111.99c0,2.3,0,4.61,0,7.71
		c3.32,0,6.12,0.29,8.8-0.14c1.13-0.18,2.51-1.69,2.92-2.89c0.51-1.49,0.16-3.29,0.16-4.96c0-78.99-0.01-157.99,0.05-236.98
		c0-3.28,0.06-6.78,1.16-9.78c2.36-6.4,8.17-8.04,14.22-8.09c22.66-0.16,45.33-0.23,67.99,0.02c9.18,0.1,15.48,4.29,15.45,16.42
		c-0.2,78.99-0.1,157.99-0.1,236.98c0,10.66,0,10.66,11.48,8.88c0.11-2.36,0.32-4.81,0.32-7.27c0.02-54,0.01-107.99,0.02-161.99
		c0-1.83-0.05-3.67,0.04-5.5c0.47-10.35,5.21-15.43,15.52-15.53c22.66-0.21,45.33-0.2,67.99,0c8.72,0.08,15.74,4.45,15.66,16.25
		c-0.36,55.83-0.16,111.66-0.16,167.49C373.77,455.26,373.77,457.38,373.77,460.05z M413.02,188.91c0,90.68,0,180.72,0,270.96
		c14.83,0,29.36,0,43.94,0c0-90.53,0-180.68,0-270.96C442.15,188.91,427.74,188.91,413.02,188.91z M190.88,342.45
		c0,37.47,0.05,74.95-0.07,112.42c-0.01,3.98,0.91,5.57,5.24,5.47c11.65-0.28,23.32-0.23,34.97-0.02c3.82,0.07,5.22-0.95,5.22-4.98
		c-0.1-75.28-0.1-150.56,0-225.83c0.01-4.09-1.48-5.02-5.25-4.95c-10.99,0.21-21.98,0.07-32.97,0.07c-7.12,0-7.13,0-7.13,6.91
		C190.88,268.5,190.88,305.47,190.88,342.45z M346.38,297c-15,0-29.56,0-44.16,0c0,54.56,0,108.74,0,162.98c14.92,0,29.37,0,44.16,0
		C346.38,405.51,346.38,351.31,346.38,297z M124.98,351.05c-15.07,0-29.61,0-44.39,0c0,36.49,0,72.56,0,108.86
		c14.95,0,29.51,0,44.39,0C124.98,423.53,124.98,387.47,124.98,351.05z"/>
	<path class="st0" d="M301.5,150.41c11.57-7.69,23.61-8.28,36.25-4.94c1.34,0.36,3.79-0.78,4.73-1.99
		c16.38-21.21,32.55-42.57,48.94-63.78c1.87-2.42,1.65-4.32,0.66-6.77c-9.33-22.88,4.07-47.87,26.46-53.92
		c26.44-7.15,50.04,11.94,51.44,36.92c1.58,28.01-26.78,49.69-52.78,40.73c-3.03-1.05-4.63-0.02-6.27,2.14
		c-16.24,21.32-32.53,42.59-48.65,63.99c-0.93,1.24-1.16,3.82-0.54,5.28c9.96,23.31-3.81,50.52-30.27,56.01
		c-19.77,4.1-38.91-8.79-45.07-25.89c-2.71-7.52-3-15.24-1.65-23.11c0.23-1.35-0.27-3.4-1.23-4.28c-14.9-13.81-29.88-27.53-45-41.09
		c-1.02-0.92-3.75-1.11-4.99-0.41c-10.82,6.09-22.04,7.17-33.61,2.92c-3.18-1.17-4.29,0.67-5.7,2.36c-11.58,13.97-23.09,28-34.64,42
		c-5.72,6.93-11.33,13.96-17.25,20.71c-2.32,2.64-2.93,4.75-1.75,8.33c8.28,25.1-4.77,48.18-30.4,54.34
		c-17.46,4.2-38.11-7.6-45.09-25.05c-8.51-21.3,2.59-45.17,23.85-53.03c8.82-3.26,17.96-3.1,26.91-0.44c2.7,0.8,4.23,0.47,5.96-1.64
		c17.52-21.37,35.06-42.72,52.74-63.96c2.08-2.49,2.4-4.39,1.25-7.47c-10.15-27.28,10.08-55.97,39.06-55.07
		c21.27,0.67,38.54,18.12,38.92,38.61c0.07,3.79-0.67,7.59-0.67,11.39c0,1.41,0.68,3.23,1.69,4.17
		C270.18,121.76,285.66,135.9,301.5,150.41z M337.51,183.82c-0.06-7.39-5.98-13.39-13.38-13.14c-8.84,0.31-12.84,6.33-13.11,13.99
		c-0.24,6.92,6.27,12.61,13.43,12.57C331.86,197.19,337.57,191.33,337.51,183.82z M102.72,233.23c7.43,0,13.21-5.76,13.28-13.23
		c0.07-7.25-6.13-13.5-13.24-13.35c-7.46,0.16-13.24,5.99-13.22,13.35C89.56,227.49,95.27,233.23,102.72,233.23z M213.44,107.23
		c7.12,0.02,13.24-5.78,13.4-12.72c0.18-7.61-5.78-13.86-13.24-13.89c-7.49-0.03-13.44,6.07-13.4,13.74
		C200.24,101.26,206.35,107.21,213.44,107.23z M429.38,71.22c7.28,0.07,13.38-5.79,13.6-13.07c0.21-7.1-5.95-13.44-13.14-13.53
		c-7.5-0.09-13.24,5.54-13.34,13.08C416.4,65.33,421.94,71.15,429.38,71.22z"/>
</g>
</svg>
