<?xml version="1.0" encoding="utf-8"?>
<!-- Generator: Adobe Illustrator 27.5.0, SVG Export Plug-In . SVG Version: 6.00 Build 0)  -->
<svg version="1.1" id="Camada_1" xmlns="http://www.w3.org/2000/svg" xmlns:xlink="http://www.w3.org/1999/xlink" x="0px" y="0px"
	 viewBox="0 0 500 500" style="enable-background:new 0 0 500 500;" xml:space="preserve">
<style type="text/css">
	.st0{fill:#6D26C2;stroke:#6D26C2;stroke-width:3;stroke-miterlimit:10;}
</style>
<g>
	<path class="st0" d="M249.8,422c-45.7,0-91.3-0.1-137,0.1c-11.5,0-21.3-3.2-28.4-12.7c-4.1-5.5-6.1-11.8-6.1-18.6
		c0-18.7,0-37.3,0-56c0-74.5,0-149,0-223.5c0-17.5,9.3-28.9,26.3-32.6c2.1-0.4,4.3-0.6,6.4-0.6c92.9,0,185.7,0,278.5,0
		c19,0,32.5,13.2,32.5,32.2c0.1,93.2,0,186.3,0.1,279.5c0,17.2-13,32.4-33.8,32.2c-44.3-0.4-88.7-0.1-133-0.1
		C253.4,422,251.6,422,249.8,422z M250.6,180.8c-47.8,0-95.7,0.1-143.5-0.1c-5.1,0-6.4,1.3-6.4,6.4c0.2,66.7,0.1,133.3,0.1,200
		c0,9.3,2.9,12.2,12.3,12.2c91.2,0,182.3,0,273.5,0c10.1,0,12.8-2.6,12.8-12.6c0-66.3,0-132.6,0-199c0-6.8,0-6.8-6.8-6.8
		C345.3,180.8,297.9,180.8,250.6,180.8z M249.9,158.1c48,0,96-0.1,144,0.1c4.4,0,5.7-1.2,5.6-5.6c-0.3-13.5-0.1-27-0.1-40.5
		c0-7.9-3.3-11.3-11.3-11.3c-92,0-184,0-276,0c-7.9,0-11.2,3.4-11.2,11.3c0,13.2,0,26.3,0,39.5c0,6.5,0,6.5,6.5,6.5
		C154.8,158.1,202.3,158.1,249.9,158.1z"/>
	<path class="st0" d="M179.5,198.1c16.2,0,32.3,0,48.5,0c8.7,0,12.8,4.2,12.9,12.9c0,25.5-0.3,51,0.2,76.4
		c0.2,10.7-5.8,15.3-15.1,15.2c-28.6-0.2-57.3-0.1-85.9-0.1c-3,0-6,0.1-9,0c-8.6-0.4-12.8-4.6-12.9-13.2c-0.1-26.1-0.1-52.3,0-78.4
		c0-8.7,4.3-12.8,13-12.8C147.2,198.1,163.4,198.1,179.5,198.1z M179.6,279.2c11.2,0,22.3-0.2,33.5,0.1c4.1,0.1,5.1-1.4,5.1-5.2
		c-0.1-16.1-0.1-32.3,0-48.4c0-3.3-0.9-4.8-4.5-4.7c-22.6,0.1-45.3,0.1-67.9,0c-3.7,0-4.9,1.3-4.8,4.9c0.2,16.1,0.2,32.3,0,48.4
		c-0.1,4.1,1.5,5,5.3,5C157.2,279.1,168.4,279.2,179.6,279.2z"/>
	<path class="st0" d="M250.1,319.3c39.5,0,79,0,118.5,0c4.4,0,8.3,0.8,11.1,4.4c5.7,7.1,1.8,16.6-7.6,18.7c-1.8,0.4-3.6,0.3-5.5,0.3
		c-77.6,0-155.3,0-232.9,0c-2.5,0-5-0.2-7.4-0.9c-5.9-1.7-8.8-6.4-8.1-12.6c0.6-5.1,4.9-9.3,10.4-9.8c1.5-0.1,3,0,4.5,0
		C172.1,319.3,211.1,319.3,250.1,319.3z"/>
	<path class="st0" d="M250,359.2c39.7,0,79.3,0,119,0c8.3,0,13.4,4.8,13.1,12.2c-0.2,4.9-3.2,9-8,10.2c-2.4,0.6-4.9,0.8-7.4,0.8
		c-77.6,0-155.3,0-232.9,0c-1.8,0-3.7-0.1-5.5-0.4c-7-1.2-10.6-5.7-10.1-12.5c0.4-6,5.2-10.3,11.9-10.4c20.5-0.1,41,0,61.5,0
		C211,359.2,230.5,359.2,250,359.2z"/>
	<path class="st0" d="M320.1,261.6c-16.1,0-32.3,0-48.5,0c-8.3,0-13.4-4.3-13.6-11.3c-0.1-6.9,5-11.8,13.1-11.9
		c9.8-0.2,19.6-0.1,29.5-0.1c22.5,0,45,0,67.4,0c8.8,0,13.9,4.4,14,11.5c0.1,6.9-4.7,11.7-12.1,11.7
		C353.4,261.7,336.7,261.6,320.1,261.6z"/>
	<path class="st0" d="M320.3,279.2c16.1,0,32.3,0,48.5,0c8,0,13,4.2,13.3,11c0.3,7.2-4.6,12.2-12.7,12.2c-32.8,0.1-65.6,0.1-98.4,0
		c-7.9,0-12.9-4.9-12.9-11.7c0-7,5.2-11.6,13.3-11.6C287.7,279.2,304,279.2,320.3,279.2z"/>
	<path class="st0" d="M129.4,118.2c6.5,0,11.4,4.9,11.4,11.2c0,6.4-4.9,11.4-11.3,11.4c-6.4,0-11.4-4.8-11.4-11.3
		S123,118.1,129.4,118.2z"/>
	<path class="st0" d="M220.8,129.5c0,6.4-5,11.3-11.4,11.3c-6.4,0-11.3-4.9-11.3-11.4c0-6.4,4.9-11.3,11.4-11.3
		C215.9,118.2,220.8,123.1,220.8,129.5z"/>
	<path class="st0" d="M180.8,129.6c-0.1,6.4-5,11.3-11.4,11.2c-6.3-0.1-11.2-5.1-11.2-11.5c0.1-6.4,5.1-11.3,11.4-11.2
		C176,118.3,180.8,123.2,180.8,129.6z"/>
</g>
</svg>
