<?xml version="1.0" encoding="utf-8"?>
<!-- Generator: Adobe Illustrator 27.5.0, SVG Export Plug-In . SVG Version: 6.00 Build 0)  -->
<svg version="1.1" id="Camada_1" xmlns="http://www.w3.org/2000/svg" xmlns:xlink="http://www.w3.org/1999/xlink" x="0px" y="0px"
	 viewBox="0 0 500 500" style="enable-background:new 0 0 500 500;" xml:space="preserve">
<style type="text/css">
	.st0{fill:#6D26C2;}
	.st1{fill:none;stroke:#6D26C2;stroke-width:19;stroke-miterlimit:10;}
</style>
<g>
	<path class="st0" d="M308.4,351.2c2.7,12.4,5.1,23.7,7.5,35.1c2.4,11.5-4.6,20.8-16.5,20.9c-33,0.3-66,0.3-99,0
		c-11.8-0.1-18.7-9.6-16.3-21.1c2.1-10.1,4.4-20.1,6.5-30.2c0.3-1.3,0.4-2.6,0.8-4.7c-2.4,0-4.3,0-6.2,0c-30.2,0-60.3,0-90.5,0
		c-15.4,0-21.4-6-21.4-21.6c0-72.2,0-144.3,0-216.5c0-15.1,6.1-21.2,21.3-21.2c103.7,0,207.4,0,311,0c14.9,0,21.1,6.2,21.1,20.8
		c0,72.7,0.1,145.3-0.2,218c0,4.7-1.6,9.9-4,14c-3.4,5.7-9.8,6.4-15.9,6.4c-30.5,0-61,0-91.5,0C313.2,351.2,311.2,351.2,308.4,351.2
		z M106.5,125.6c-0.1,2.3-0.4,4.4-0.4,6.6c0,41.7,0.1,83.3-0.1,125c0,5.1,1.4,6.4,6.4,6.4c91.5-0.1,183-0.1,274.5-0.1
		c2,0,3.9-0.2,6-0.4c0-46,0-91.6,0-137.5C297.5,125.6,202.2,125.6,106.5,125.6z M393.8,317.8c0-5.2-0.3-10.2,0.1-15.1
		c0.4-5.1-1.5-6.4-6.5-6.3c-91.7,0.1-183.4,0.1-275,0.1c-1.8,0-3.6,0-5.8,0c0,7.4,0,14.3,0,21.3
		C202.2,317.8,297.4,317.8,393.8,317.8z M279.4,373.7c-1.5-6.9-2.8-13.3-4.5-19.5c-0.3-1.2-2.5-2.8-3.8-2.8
		c-14.3-0.2-28.6-0.2-42.9,0c-1.1,0-3.1,1.1-3.3,2c-1.7,6.5-3,13.2-4.5,20.2C240.3,373.7,259.5,373.7,279.4,373.7z"/>
</g>
<g>
	<path class="st1" d="M251.9,146.9c2,0.5,4.1,0.8,6,1.5c8,3.2,12.9,9.1,14.1,17.6c1.6,10.9-4.8,20.9-15.3,24.3
		c-11.9,3.9-25.1-3.4-28.2-15.5c-3-11.7,3.4-23.3,14.8-27c1.6-0.5,3.2-0.7,4.8-1.1C249.4,146.9,250.6,146.9,251.9,146.9z"/>
	<path class="st1" d="M286.9,242.4c-24.6,0-49.1,0-73.8,0c0-0.4,0-0.7,0-1c0-5.8,0-11.6,0-17.3c0-9.1,3.4-16.8,10.4-22.7
		c4.9-4.1,10.5-6.5,16.9-6.6c6.6-0.2,13.2-0.2,19.8,0c5.2,0.2,10,2,14.2,5c6.2,4.4,10.2,10.3,11.8,17.7c0.4,2,0.6,4.1,0.7,6.2
		c0.1,6.1,0,12.1,0,18.2C286.9,241.9,286.9,242.1,286.9,242.4z"/>
</g>
</svg>
