<?xml version="1.0" encoding="utf-8"?>
<!-- Generator: Adobe Illustrator 27.5.0, SVG Export Plug-In . SVG Version: 6.00 Build 0)  -->
<svg version="1.1" id="Camada_1" xmlns="http://www.w3.org/2000/svg" xmlns:xlink="http://www.w3.org/1999/xlink" x="0px" y="0px"
	 viewBox="0 0 500 500" style="enable-background:new 0 0 500 500;" xml:space="preserve">
<style type="text/css">
	.st0{fill:#6D26C2;}
</style>
<g>
	<path class="st0" d="M60.57,249.49c0-59.65-0.05-119.3,0.03-178.95c0.02-16.91,7.96-30.31,19.92-41.45
		c11.84-11.02,26.19-16.08,42.33-16.09c63.32-0.01,126.63-0.02,189.95,0.01c6.37,0,11.72,2.02,16.55,6.7
		c33.62,32.56,67.39,64.96,101.31,97.21c5.51,5.23,7.81,10.92,7.8,18.49c-0.16,95.81-0.54,191.62,0.15,287.42
		c0.22,30.9-21.22,55.21-46.42,61.57c-5.57,1.41-11.51,1.86-17.29,1.87c-83.64,0.11-167.29-0.06-250.93,0.15
		c-32.47,0.08-56.3-21.45-62.51-48.61c-1.24-5.42-1.01-11.24-1.02-16.87c-0.07-57.15-0.04-114.3-0.04-171.46
		C60.47,249.49,60.52,249.49,60.57,249.49z M297.67,48.67c-1.89-0.15-2.88-0.29-3.87-0.29c-57.99-0.01-115.97-0.01-173.96,0.03
		c-1.64,0-3.32,0.24-4.9,0.68c-13.04,3.66-19.82,13.24-19.82,28.09c-0.01,114.97,0.02,229.94-0.03,344.92
		c-0.01,18.2,11.56,29.01,28.8,28.97c83.48-0.18,166.96-0.19,250.44,0c18.6,0.04,29.27-11.01,29.29-29.53
		c0.07-88.81,0.03-177.62,0.02-266.43c0-1.76-0.19-3.51-0.32-5.66c-2.36,0-4.17,0-5.98,0c-13.16-0.01-26.33,0.21-39.49-0.08
		c-20.96-0.47-37.34-9.89-49.31-26.81c-7.48-10.58-10.94-22.63-10.88-35.65C297.72,74.29,297.67,61.67,297.67,48.67z M332.8,71.45
		c-0.27,13.69-2.16,26.41,8.48,36.03c10.13,9.16,22.5,7.55,36.18,7.05C362.15,99.76,347.97,86.08,332.8,71.45z"/>
	<path class="st0" d="M270.08,334.87c0,7.66,0,14.77,0,22.74c-7.79,0-15.22,0-22.64,0c-12.02,0-12.02,0-12.03-12.04
		c0-0.5,0.01-1,0-1.5c-0.22-9.28,1.35-7.67-8.47-9.68c-23.38-4.78-41.42-16.7-51.46-39.08c-0.32-0.72-0.54-1.49-0.99-2.73
		c10.57-4.5,20.91-8.91,31.02-13.22c3.48,4.29,6.24,8.98,10.16,12.31c11.8,10,25.86,13.14,41.05,11.83
		c8.02-0.69,15.91-2.05,22.56-7.02c11.47-8.58,10.36-22.8-2.88-28.01c-8.99-3.54-18.85-4.92-28.38-7
		c-12.46-2.72-25.32-4.12-37.38-8.02c-16.6-5.37-26.26-17.61-27.95-35.34c-1.92-20.14,5.22-36.2,23.21-45.97
		c7.75-4.21,16.63-6.44,25.16-9.03c3.15-0.96,4.49-2.11,4.39-5.36c-0.16-4.98-0.04-9.96-0.04-15.37c11.64,0,22.84,0,34.68,0
		c0,4.33,0.43,8.67-0.1,12.88c-0.73,5.74,1.73,7.74,7.06,8.77c14.07,2.73,25.75,9.73,34.34,21.37c2.63,3.56,4.72,7.52,7.35,11.78
		c-9.64,4.48-18.62,8.75-27.74,12.72c-0.91,0.4-3.06-0.67-3.89-1.67c-9.8-11.81-23.06-15.45-37.47-15.06
		c-7.16,0.19-14.46,1.93-21.32,4.15c-6.41,2.08-10.4,7.11-10.19,14.41c0.21,7.24,5.11,10.9,11.21,12.28
		c10.82,2.45,21.82,4.12,32.78,5.93c13.62,2.25,27.24,4.4,39.57,11.22c18.28,10.12,24.24,28.3,21.95,47.6
		c-3.05,25.69-23.72,39.9-46.15,44.65C275.22,333.87,272.95,334.29,270.08,334.87z"/>
</g>
</svg>
