<?xml version="1.0" encoding="utf-8"?>
<!-- Generator: Adobe Illustrator 27.5.0, SVG Export Plug-In . SVG Version: 6.00 Build 0)  -->
<svg version="1.1" id="Camada_1" xmlns="http://www.w3.org/2000/svg" xmlns:xlink="http://www.w3.org/1999/xlink" x="0px" y="0px"
	 viewBox="0 0 500 500" style="enable-background:new 0 0 500 500;" xml:space="preserve">
<style type="text/css">
	.st0{fill:#6D26C2;stroke:#6D26C2;stroke-width:7;stroke-miterlimit:10;}
</style>
<g>
	<path class="st0" d="M207.9,239.8c-12.5-12.3-25.1-24.7-37.6-37.2c-12.5-12.5-25-24.9-37.4-37.6c-2.4-2.5-4.9-3.9-8.3-3.4
		c-11.7,1.9-18.9-2.9-24.2-13.5c-6.4-12.6-14.4-24.4-21.6-36.6c-4.2-7.2-3.7-11,2.1-16.8c5.2-5.2,10.3-10.4,15.6-15.6
		c4.9-4.9,9-5.6,14.8-2.2c15.2,9,30.3,18.1,45.4,27.2c3.9,2.4,6.2,6,5.4,10.4c-1.8,10.5,3.4,17.2,10.5,24.1
		c21.9,21.2,43.2,43.1,64.7,64.7c1.3,1.3,2.6,2.5,4.1,3.9c1.3-1.2,2.5-2.2,3.5-3.2c13.1-13.1,26.2-26.2,39.3-39.2c2-2,3-3.6,2.4-6.9
		c-7.2-38.7,18.9-73.9,53.7-81.4c12.3-2.6,24.4-2.4,36.4,1.4c9.2,2.9,11.2,11.2,4.5,18.1c-7.3,7.5-14.8,15-22.1,22.5
		c-4.7,4.8-4.7,12.8,0.1,17.7c1.7,1.8,3.5,3.6,5.2,5.4c6.2,6.4,12.9,6.4,19.2-0.1c7-7.1,14-14.3,21.1-21.3
		c7.4-7.3,16.1-5.3,18.5,4.6c9.5,40.3-8.2,75.1-47.8,88.1c-10,3.3-20.6,3.8-31,1.6c-3.7-0.8-6.1,0.2-8.7,2.9
		c-10.5,10.7-21.1,21.2-32.5,32.5c1.8,1.6,3.2,2.9,4.5,4c8.1-5,12.4-5.4,16.3-1.7c4.1,3.8,4.1,7.9-0.1,16.2
		c11,10.2,22.2,20.5,33.3,30.7c17.7,16.2,34.9,33,53.2,48.5c22.2,18.8,19.8,57.4-5.7,71.9c-17.6,10-39.5,7.1-54.2-8.5
		c-15.8-16.8-31.2-33.8-46.8-50.7c-11.5-12.5-23-25-34.5-37.4c-7.9,4.7-12,4.7-16,0.5c-4.1-4.2-3.8-7.3,1.4-16.3
		c-1.2-1.2-2.4-2.6-5.2-5.7c-1.3,2.2-2,4.3-3.5,5.8c-9.3,9.5-18.8,19-28.3,28.3c-2.1,2.1-2.7,3.9-2.1,7
		c7.9,40.9-23.6,80.5-63.4,82.1c-8.6,0.4-17.6-0.6-26.1-2.4c-10.1-2.2-12.1-11.1-4.8-18.4c7.6-7.7,15.4-15.2,23.1-22.9
		c4.2-4.2,4.2-11.9,0.1-16.1c-2.1-2.1-4.2-4.2-6.4-6.4c-6.5-6.5-12.8-6.5-19.2-0.1c-7.2,7.2-14.3,14.5-21.5,21.6
		c-7.3,7.2-15.8,5.1-18.5-4.8c-12.7-45.5,18.4-85.9,59.5-90.1c7-0.7,14.2,0.5,21.2,0.6c1.6,0,3.8-0.3,4.9-1.4
		c14.4-14.2,28.6-28.5,42.8-42.8C207.4,241.5,207.4,241.1,207.9,239.8z M353.5,97.9c-0.5-0.7-1-1.5-1.6-2.2c-2.1,0.1-4.3,0-6.4,0.4
		c-29,6.3-46.2,35.3-37.8,63.7c1.6,5.2,0.6,9.3-3.2,13.1c-43.6,43.6-87.2,87.2-130.8,130.8c-3.6,3.6-7.5,4.6-12.7,3.2
		c-20.5-5.7-38.2-0.6-52.6,15c-7.6,8.2-11.7,18.1-11.4,29.9c3.1-2.2,5.6-4.8,7.7-7.7c5.9-8,13.6-10.1,23.4-10.1
		c9.8,0,16.9,2.8,23.6,9.9c15.2,16.1,15.4,15.8,15.2,36.8c-0.1,4.3-1.3,7.7-4.5,10.6c-4.6,4-9,8.2-13.5,12.4
		c0.4,0.6,0.8,1.2,1.1,1.8c3.3-0.6,6.6-1,9.8-2c27.1-8.1,41.9-34.4,34.7-61.8c-1.6-6-0.8-10.4,3.6-14.8c43.1-43,86.1-86,129-129.1
		c4.2-4.2,8.5-5.5,14.4-3.9c12.8,3.6,25.2,2.3,37.2-3.6c15.2-7.5,27.3-26,26.5-42.6c-3.5,3.8-6.8,6.6-9.3,10
		c-5.2,7-12.1,8.2-20.5,8.7c-11.9,0.8-20-3.4-27.5-12.2c-14.2-16.4-12.5-9.7-12.7-32.9c0-4.8,1.3-8.8,5-12
		C344.7,105.4,349.1,101.6,353.5,97.9z M283.5,308.8c6.2,6.8,12.6,13.7,19,20.7c20.7,22.5,41.4,45.1,62.2,67.6
		c7.8,8.4,19,10.5,28.1,5.8c15.3-8,17.9-26.7,4.9-38.8c-21.6-20.2-43.6-40.2-65.4-60.2c-7.7-7.1-15.4-14.1-22.9-20.9
		C300.7,291.8,292.3,300.2,283.5,308.8z M98.7,105.8c5.8,9.8,11.8,19,17,28.7c2.8,5.2,6,7.8,12.1,6.9c6.6-1,11.6,1.8,16.3,6.6
		c24.4,24.8,49.1,49.4,73.7,74.1c1.5,1.5,3.1,2.9,4,3.8c2.2-1.3,3.9-2.3,5.6-3.3c0.1-0.7,0.3-1.4,0.4-2.1c-1.6-1-3.4-1.7-4.7-2.9
		c-23.6-23.5-46.9-47.4-70.8-70.6c-7.1-6.9-11.6-13.8-10.1-23.9c0.2-1.6-0.8-4.2-2.1-4.9c-11-6.9-22.2-13.4-33.4-20.2
		C104,100.5,101.5,102.9,98.7,105.8z M268.7,292.4c8.2-8.3,16.2-16.3,24.4-24.5c-1-0.9-2.4-2-3.5-3c-8,8.1-15.8,16-23.8,24.2
		C266.6,290.1,267.9,291.5,268.7,292.4z"/>
	<path class="st0" d="M377.6,387.6c-2.5-1.4-5.5-2.4-7.4-4.3c-19.8-19.5-39.5-39.2-59.1-58.9c-4.7-4.8-4.9-10.4-0.7-14.6
		c4-4,10.2-4,14.7,0.5c19.8,19.6,39.4,39.2,59.1,58.9c3.3,3.3,5,7.2,2.9,11.7C385.3,384.7,382.4,386.9,377.6,387.6z"/>
</g>
</svg>
