<?xml version="1.0" encoding="utf-8"?>
<!-- Generator: Adobe Illustrator 27.5.0, SVG Export Plug-In . SVG Version: 6.00 Build 0)  -->
<svg version="1.1" id="Camada_1" xmlns="http://www.w3.org/2000/svg" xmlns:xlink="http://www.w3.org/1999/xlink" x="0px" y="0px"
	 viewBox="0 0 500 500" style="enable-background:new 0 0 500 500;" xml:space="preserve">
<style type="text/css">
	.st0{fill:#6D26C2;}
	.st1{fill:none;stroke:#6D26C2;stroke-width:29;stroke-miterlimit:10;}
	.st2{fill:none;stroke:#6D26C2;stroke-width:26;stroke-miterlimit:10;}
</style>
<g>
	<path class="st0" d="M366.1,427.6c6.2-6.1,12.2-12.1,18.1-18.1c6-6,11.9-12.1,18-18c2.2-2.1,2.4-3.8,0.6-6.3
		c-6.5-9.5-12.7-19.2-19.2-28.6c-4.2-6.1-4.7-12-1.4-18.7c2.9-5.8,5.3-11.9,7.5-18c2.3-6.4,6.4-10.2,13.1-11.7
		c11.9-2.5,23.6-5.4,35.5-7.9c3.5-0.7,5-2,4.8-5.9c-0.4-7.5-0.1-14.9-0.1-22.7c10.1,0,19.8,0,31,0c-0.8,12.2-0.4,24.6-2.7,36.5
		c-2.1,11.1-10.7,17.7-21.7,20.5c-9.8,2.5-19.7,4.6-29.6,7c-5.2,1.2-7.5,6.9-4.7,11.4c4.9,7.8,9.8,15.5,14.7,23.2
		c9.4,14.9,8,28.8-4.3,41.2c-12,12.1-23.9,24.1-36,36.1c-12.5,12.5-26.5,14-41.6,4.5c-7.8-4.9-15.5-9.8-23.2-14.7
		c-4.5-2.8-10.4-0.4-11.6,4.8c-2.1,8.9-4.1,17.8-6.1,26.7c-3.7,16.5-15.2,25.8-32,25.9c-17.2,0-34.3,0-51.5,0
		c-17.1,0-28.3-8.9-32.3-25.4c-2.3-9.4-4.4-18.8-6.6-28.1c-1.2-5-6.8-7.2-11.2-4.5c-7.9,4.9-15.8,10-23.6,15
		c-14.8,9.3-28.8,7.8-41.2-4.5c-12.1-12-24.1-24-36.1-36c-12.3-12.3-13.8-26.5-4.5-41.2c4.7-7.5,9.4-14.9,14.2-22.4
		c3.9-6.1,1.8-11.3-5.2-12.9c-9.1-2.1-18.2-4-27.2-6.3c-14.1-3.5-23.2-13.9-24.1-28.3c-0.5-9.3-0.1-18.6-0.1-28.4
		c10.1,0,20,0,31.2,0c0,7.7,0.2,15.3-0.1,22.9c-0.1,3.6,1.2,5,4.6,5.6c10.8,1.9,21.5,4.2,32.3,6.1c8,1.4,13,5.7,15.5,13.6
		c1.9,6,4.7,11.7,7.2,17.5c2.7,5.9,2.5,11.5-1.1,17.1c-6.4,9.9-12.6,20-19.1,29.9c-1.8,2.7-1.7,4.4,0.7,6.8
		c11.1,10.8,22.1,21.7,33,32.8c2.5,2.6,4.3,2.5,7.2,0.5c9.4-6.5,19.2-12.7,28.6-19.2c6.1-4.2,12.1-4.5,18.8-1.3
		c5.7,2.8,11.6,5,17.5,7.2c6,2.2,9.8,6.1,11.1,12.3c2.7,12,5.5,24,8,36c0.8,3.7,2.3,5.1,6.3,5c15.3-0.5,30.7-0.8,46-0.9
		c3.5,0,4.6-1.4,5.1-4.5c1.9-11.1,4.1-22.2,6-33.4c1.2-6.7,4.9-11,11.3-13.4c6.2-2.3,12.4-4.8,18.5-7.5c6.1-2.7,11.9-2.5,17.5,1.1
		C343.3,413.2,354.6,420.2,366.1,427.6z"/>
	<path class="st0" d="M153.8,271.6c10.8,0,20.8,0,31.1,0c1,21,9.3,38.4,26.1,51.1c12.9,9.7,27.6,13.7,43.6,12.7
		c23.8-1.5,57-20.3,59.8-63.6c10,0,20.1,0,30.8,0c-1.5,33.1-14.6,60-42.1,78.2c-32.9,21.8-67.7,23.1-101.9,3.3
		C170.5,335.4,155.6,307.4,153.8,271.6z"/>
</g>
<g>
	<path class="st1" d="M254.2,19.8c4.6,1.1,9.4,1.7,13.7,3.5c18.2,7.3,29.2,20.7,32.1,40.1c3.6,24.8-11,47.6-34.8,55.4
		c-27.1,8.8-57-7.6-64.1-35.3c-6.8-26.6,7.7-53.1,33.7-61.4c3.5-1.1,7.3-1.6,10.9-2.4C248.6,19.8,251.4,19.8,254.2,19.8z"/>
	<path class="st1" d="M333.9,237c-56,0-111.8,0-167.8,0c0-0.8,0-1.6,0-2.3c0-13.2,0-26.3,0-39.5c0.1-20.8,7.7-38.2,23.6-51.6
		c11.1-9.4,24-14.7,38.5-15.1c15-0.4,30-0.4,45,0.1c11.8,0.4,22.7,4.5,32.4,11.3c14.1,9.9,23.2,23.3,26.8,40.3
		c1,4.6,1.5,9.4,1.5,14.1c0.2,13.8,0.1,27.6,0.1,41.4C333.9,236,333.9,236.4,333.9,237z"/>
</g>
<g>
	<path class="st2" d="M392.5,81.8c2.7,0.7,5.6,1,8.2,2.1c10.9,4.3,17.5,12.4,19.2,24c2.2,14.8-6.6,28.4-20.8,33.1
		c-16.2,5.3-34.1-4.6-38.3-21c-4.1-15.9,4.6-31.7,20.1-36.6c2.1-0.7,4.3-1,6.5-1.4C389.1,81.8,390.8,81.8,392.5,81.8z"/>
	<path class="st2" d="M440,211.5c-33.4,0-66.7,0-100.2,0c0-0.5,0-0.9,0-1.4c0-7.9,0-15.7,0-23.6c0.1-12.4,4.6-22.8,14.1-30.8
		c6.6-5.6,14.3-8.8,23-9c8.9-0.2,17.9-0.2,26.8,0c7.1,0.2,13.5,2.7,19.3,6.8c8.4,5.9,13.9,13.9,16,24c0.6,2.7,0.9,5.6,0.9,8.4
		c0.1,8.2,0,16.5,0,24.7C440,210.9,440,211.1,440,211.5z"/>
</g>
<g>
	<path class="st2" d="M113.6,81.8c2.7,0.7,5.6,1,8.2,2.1c10.9,4.3,17.5,12.4,19.2,24c2.2,14.8-6.6,28.4-20.8,33.1
		c-16.2,5.3-34.1-4.6-38.3-21C77.8,104,86.5,88.2,102,83.2c2.1-0.7,4.3-1,6.5-1.4C110.2,81.8,111.9,81.8,113.6,81.8z"/>
	<path class="st2" d="M161.2,211.5c-33.4,0-66.7,0-100.2,0c0-0.5,0-0.9,0-1.4c0-7.9,0-15.7,0-23.6c0.1-12.4,4.6-22.8,14.1-30.8
		c6.6-5.6,14.3-8.8,23-9c8.9-0.2,17.9-0.2,26.8,0c7.1,0.2,13.5,2.7,19.3,6.8c8.4,5.9,13.9,13.9,16,24c0.6,2.7,0.9,5.6,0.9,8.4
		c0.1,8.2,0,16.5,0,24.7C161.2,210.9,161.2,211.1,161.2,211.5z"/>
</g>
</svg>
