<svg width="184" height="46" viewBox="0 0 184 46" fill="none" xmlns="http://www.w3.org/2000/svg">
<g opacity="0.01" filter="url(#filter0_d)">
<rect x="4.07422" y="2.98633" width="37.78" height="37.78" rx="12.7059" fill="#F4263E"/>
</g>
<rect x="4.07422" y="2.98633" width="37.78" height="37.78" rx="12.7059" fill="#F4263E"/>
<g filter="url(#filter1_d)">
<path d="M16.0035 17.6987L10.4336 21.8758L16.0035 26.0529" stroke="white" stroke-opacity="0.01" stroke-width="3.92567" stroke-linecap="round" stroke-linejoin="round"/>
<path d="M29.9258 17.6987L35.4957 21.8758L29.9258 26.0529" stroke="white" stroke-opacity="0.01" stroke-width="3.92567" stroke-linecap="round" stroke-linejoin="round"/>
<path d="M24.356 14.9146L21.5703 28.8386" stroke="white" stroke-opacity="0.01" stroke-width="3.92567" stroke-linecap="round" stroke-linejoin="round"/>
</g>
<path d="M16.0035 17.6987L10.4336 21.8758L16.0035 26.0529" stroke="white" stroke-width="3.92567" stroke-linecap="round" stroke-linejoin="round"/>
<path d="M29.9258 17.6987L35.4957 21.8758L29.9258 26.0529" stroke="white" stroke-width="3.92567" stroke-linecap="round" stroke-linejoin="round"/>
<path d="M24.356 14.9146L21.5703 28.8386" stroke="white" stroke-width="3.92567" stroke-linecap="round" stroke-linejoin="round"/>
<path d="M67.0969 22.3096C67.0969 17.769 63.5485 14.2206 58.9477 14.2206C54.2567 14.2206 50.6483 17.8592 50.6483 22.7607C50.6483 27.5118 54.0463 31.3608 59.2485 31.3608C62.6164 31.3608 65.3227 29.7671 66.315 27.3615L62.7066 25.6474C62.0751 26.7601 60.9023 27.4517 59.3086 27.4517C57.0834 27.4517 55.6099 26.1286 55.3393 24.0537H66.8864C67.0367 23.6027 67.0969 22.9712 67.0969 22.3096ZM55.4295 20.746C55.8806 18.8515 57.1736 17.8291 58.9477 17.8291C60.8121 17.8291 62.1352 19.0019 62.3156 20.746H55.4295ZM68.4357 31H72.9463V8.59746H68.4357V31ZM91.0299 22.3096C91.0299 17.769 87.4816 14.2206 82.8808 14.2206C78.1898 14.2206 74.5814 17.8592 74.5814 22.7607C74.5814 27.5118 77.9793 31.3608 83.1815 31.3608C86.5494 31.3608 89.2558 29.7671 90.2481 27.3615L86.6396 25.6474C86.0082 26.7601 84.8354 27.4517 83.2417 27.4517C81.0165 27.4517 79.543 26.1286 79.2724 24.0537H90.8194C90.9698 23.6027 91.0299 22.9712 91.0299 22.3096ZM79.3626 20.746C79.8136 18.8515 81.1067 17.8291 82.8808 17.8291C84.7452 17.8291 86.0683 19.0019 86.2487 20.746H79.3626ZM110.772 14.2206C108.547 14.2206 106.712 15.243 105.78 16.7466C104.728 15.0927 102.984 14.2206 100.879 14.2206C98.8941 14.2206 97.3605 15.0025 96.5787 16.5661V14.5815H92.3688V31H96.8794V21.4075C96.8794 19.3928 97.9619 18.2802 99.5556 18.2802C101.149 18.2802 102.232 19.3928 102.232 21.4075V31H106.742V21.4075C106.742 19.3928 107.825 18.2802 109.419 18.2802C111.013 18.2802 112.095 19.3928 112.095 21.4075V31H116.606V20.4452C116.606 16.6564 114.2 14.2206 110.772 14.2206ZM134.403 22.3096C134.403 17.769 130.855 14.2206 126.254 14.2206C121.563 14.2206 117.955 17.8592 117.955 22.7607C117.955 27.5118 121.353 31.3608 126.555 31.3608C129.923 31.3608 132.629 29.7671 133.621 27.3615L130.013 25.6474C129.381 26.7601 128.209 27.4517 126.615 27.4517C124.39 27.4517 122.916 26.1286 122.646 24.0537H134.193C134.343 23.6027 134.403 22.9712 134.403 22.3096ZM122.736 20.746C123.187 18.8515 124.48 17.8291 126.254 17.8291C128.118 17.8291 129.442 19.0019 129.622 20.746H122.736ZM144.553 14.2206C142.478 14.2206 140.794 14.9724 139.952 16.5661V14.5815H135.742V31H140.253V21.4075C140.253 19.5131 141.485 18.2802 143.26 18.2802C145.034 18.2802 146.267 19.5131 146.267 21.4075V31H150.777V20.4452C150.777 16.7165 148.251 14.2206 144.553 14.2206ZM160.888 31.1804C161.579 31.1804 162.391 31.1203 162.992 31.0301V27.4817C162.571 27.5419 162.211 27.572 161.94 27.572C160.046 27.572 159.143 26.7601 159.143 25.0761V18.4907H162.992V14.5815H159.143V9.64993H154.633V12.0556C154.633 13.7395 153.701 14.5815 152.017 14.5815H151.806V18.4907H154.633V25.0761C154.633 28.9251 156.918 31.1804 160.888 31.1804ZM171.283 31.3608C175.223 31.3608 177.959 29.286 177.959 26.2489C177.959 23.9034 176.395 22.2194 173.479 21.4376L170.441 20.6257C169.9 20.4753 168.758 20.1746 168.758 19.1823C168.758 18.3403 169.539 17.8291 170.862 17.8291C172.637 17.8291 174.05 18.6711 174.591 20.0844L177.959 18.5207C176.907 15.8445 174.23 14.2206 170.862 14.2206C167.013 14.2206 164.397 16.2955 164.397 19.3326C164.397 21.5879 165.841 23.332 168.818 24.1139L171.704 24.8656C172.276 25.016 173.599 25.3467 173.599 26.4293C173.599 27.3314 172.697 27.9027 171.283 27.9027C169.419 27.9027 167.946 26.9104 167.074 25.0761L163.736 26.6398C164.758 29.6168 167.705 31.3608 171.283 31.3608Z" fill="#1F2559"/>
<defs>
<filter id="filter0_d" x="0.495105" y="0.152863" width="44.9383" height="44.9383" filterUnits="userSpaceOnUse" color-interpolation-filters="sRGB">
<feFlood flood-opacity="0" result="BackgroundImageFix"/>
<feColorMatrix in="SourceAlpha" type="matrix" values="0 0 0 0 0 0 0 0 0 0 0 0 0 0 0 0 0 0 127 0"/>
<feOffset dy="0.745649"/>
<feGaussianBlur stdDeviation="1.78956"/>
<feColorMatrix type="matrix" values="0 0 0 0 0.956863 0 0 0 0 0.14902 0 0 0 0 0.243137 0 0 0 0.4 0"/>
<feBlend mode="normal" in2="BackgroundImageFix" result="effect1_dropShadow"/>
<feBlend mode="normal" in="SourceGraphic" in2="effect1_dropShadow" result="shape"/>
</filter>
<filter id="filter1_d" x="5.8256" y="10.8335" width="34.2781" height="23.1446" filterUnits="userSpaceOnUse" color-interpolation-filters="sRGB">
<feFlood flood-opacity="0" result="BackgroundImageFix"/>
<feColorMatrix in="SourceAlpha" type="matrix" values="0 0 0 0 0 0 0 0 0 0 0 0 0 0 0 0 0 0 127 0"/>
<feOffset dy="0.529411"/>
<feGaussianBlur stdDeviation="1.32353"/>
<feColorMatrix type="matrix" values="0 0 0 0 0 0 0 0 0 0 0 0 0 0 0 0 0 0 0.08 0"/>
<feBlend mode="normal" in2="BackgroundImageFix" result="effect1_dropShadow"/>
<feBlend mode="normal" in="SourceGraphic" in2="effect1_dropShadow" result="shape"/>
</filter>
</defs>
</svg>
