<?xml version="1.0" encoding="utf-8"?>
<!-- Generator: Adobe Illustrator 27.5.0, SVG Export Plug-In . SVG Version: 6.00 Build 0)  -->
<svg version="1.1" id="Camada_1" xmlns="http://www.w3.org/2000/svg" xmlns:xlink="http://www.w3.org/1999/xlink" x="0px" y="0px"
	 viewBox="0 0 500 500" style="enable-background:new 0 0 500 500;" xml:space="preserve">
<style type="text/css">
	.st0{fill:#6D26C2;}
	.st1{fill:#FFFFFF;}
</style>
<g>
	<path class="st0" d="M476.81,191.2c-9.03-34.09-24.88-64.74-47.95-91.45c-42.39-49.09-96.05-76.62-160.64-81.93
		c-45-3.7-87.72,5.32-127.6,26.67C92.6,70.19,57.53,108.15,35.64,157.95c-18.04,41.06-23.33,84.06-16.74,128.4
		c5.61,37.79,19.95,72.11,42.43,103c1.3,1.78,1.78,3.46,1.77,5.58c-0.05,28.97-0.04,57.94,0,86.91c0,1.06-0.67,2.36,0.59,3.23
		c0.29-0.5,0.37-1.03,0.37-1.56c0.15,1.44,0.85,1.21,3.93,1.21c61.48,0.01,122.96,0,184.44,0.02c1.26,0,2.57-0.35,3.78,0.33
		c13.15,0.31,26.1-1.49,38.95-3.99c39.87-7.75,75.48-24.62,106.32-51.02c45.52-38.96,72.64-88.21,80.96-147.66
		C486.76,251.64,484.76,221.19,476.81,191.2z M64.03,482.65c-0.02-0.25-0.03-0.49-0.03-0.73c0.02-29.04,0.01-58.07,0.01-87.11
		c0.02,28.65,0.02,57.29,0.02,85.94C64.04,481.53,64.03,482.14,64.03,482.65z"/>
	<g>
		<path class="st1" d="M149.98,218.78c-16.83-3.13-33.73-5.32-50.91-3.93c-10.48,0.84-19.74,4.11-26.01,13.24
			c-3.13,4.57-5.21,9.62-6.6,14.95c-3.64,13.91-5.65,27.99-3.62,42.38c1.45,10.24,7.24,16.25,17.43,17.89
			c9.55,1.53,18.55-0.6,27.11-4.9c5.5-2.76,10-6.85,14.19-11.53c0,4.42,0.1,8.48-0.04,12.53c-0.06,1.89,0.58,2.39,2.38,2.35
			c4.84-0.11,9.68-0.16,14.5,0.02c2.28,0.09,3.07-0.52,3.39-2.87c3.47-25.53,7.04-51.04,10.72-76.54
			C152.89,219.9,152.16,219.18,149.98,218.78z M121.86,260.2c-0.38,7.05-4.53,10.98-9.14,14.98c-5.21,4.5-10.91,7.98-18.12,7.98
			c-4.56,0-6.32-1.3-6.85-5.86c-0.92-7.75,0.72-15.37,1.84-22.98c0.56-3.8,1.24-7.6,2.75-11.21c2.88-6.88,6.78-9.55,14.33-9.59
			c5.01,0.26,10.02-0.24,15.03-0.03c1.26,0.05,2.59-0.25,3.72,0.64C124.17,242.81,122.34,251.47,121.86,260.2z"/>
		<path class="st1" d="M250.12,219.58c-3.62,25.84-7.11,51.7-10.63,77.56c-0.62,4.57-0.59,4.58-5.13,4.58
			c-3.97,0-7.96-0.16-11.92,0.05c-2.59,0.14-3.61-0.5-3.43-3.29c0.25-3.94,0.06-7.92,0.06-12.63c-5.56,4.97-10.68,9.36-16.64,12.6
			c-8.47,4.61-17.41,6.74-27,4.71c-10.52-2.22-15.9-9.24-14.77-20.02c1.12-10.78,2.8-21.5,4.28-32.24
			c1.43-10.43,2.98-20.83,4.3-31.28c0.29-2.32,1.06-2.99,3.39-2.93c6.65,0.16,13.33,0.12,19.99,0.02c1.94-0.03,2.52,0.27,2.18,2.47
			c-2.75,18.16-5.39,36.33-7.96,54.51c-1.04,7.28,2.47,10.24,10.01,8.63c4.83-1.03,8.87-3.63,12.96-6.24
			c5.72-3.64,9.06-8.01,9.64-15.36c1.07-13.25,3.48-26.38,5.3-39.57c0.62-4.4,0.58-4.41,4.97-4.41c6.02,0,12.04,0.11,18.06-0.05
			C250.2,216.63,250.44,217.31,250.12,219.58z"/>
		<path class="st1" d="M348.94,218.44c-5.07,24.17-12.04,47.63-24.52,69.2c-5.46,9.44-13.33,14.23-24.27,14.07
			c-6.45-0.1-12.9,0.02-19.35-0.01c-5.52-0.03-7.95-2.18-8.89-7.72c-3.88-22.98-7.77-45.95-11.64-68.94
			c-0.44-2.64-2.27-6.11-0.91-7.7c1.54-1.79,5.24-0.44,8-0.57c1.72-0.09,3.43-0.02,5.16-0.02c3.54,0,7.1,0.14,10.64-0.05
			c2.15-0.11,2.94,0.46,3.14,2.71c1.08,11.88,2.33,23.74,3.53,35.61c0.91,8.97,1.87,17.95,2.69,26.94c0.19,2.08,1.03,2.62,3.03,2.55
			c3.5-0.14,5.85-1.86,7.62-4.64c4.2-6.58,6.73-13.89,9.27-21.19c4.48-12.93,7.47-26.21,9.2-39.78c0.19-1.54,0.71-2.19,2.4-2.17
			c7.74,0.09,15.49,0.04,23.23,0.02C348.46,216.74,349.31,216.67,348.94,218.44z"/>
		<path class="st1" d="M438.09,237.71c-1.49-9.58-7.16-16.28-16.37-19.9c-7.15-2.81-14.65-3.09-21.96-3.51
			c-6.09,0.24-12.01,0.46-17.8,1.77c-10.34,2.33-18.75,7.52-23.63,17.2c-6.85,13.57-9.21,28.1-7.88,43.13
			c1.25,14.21,9.12,22.75,22.93,25.8c9.88,2.18,19.83,2.2,29.79,0.79c12.77-1.83,23.12-7.44,28.63-19.68
			C438.34,268.77,440.55,253.45,438.09,237.71z M410.8,265.33c-0.79,4.24-1.95,8.36-4.18,12.1c-2.6,4.38-6.47,6.74-11.59,6.96
			c-3-0.05-6-0.08-9.01,0.01c-5.69-0.46-8.31-2.49-9.18-8.01c-1.37-8.65,0.7-17.08,2.25-25.51c0.06-0.31,0.23-0.6,0.29-0.92
			c3.18-14.55,10.61-18.24,26.41-15.78c3.9,0.6,6.18,3.32,6.83,7.21C413.95,249.5,412.27,257.41,410.8,265.33z"/>
	</g>
</g>
</svg>
