<?xml version="1.0" encoding="utf-8"?>
<!-- Generator: Adobe Illustrator 27.5.0, SVG Export Plug-In . SVG Version: 6.00 Build 0)  -->
<svg version="1.1" id="Camada_1" xmlns="http://www.w3.org/2000/svg" xmlns:xlink="http://www.w3.org/1999/xlink" x="0px" y="0px"
	 viewBox="0 0 500 500" style="enable-background:new 0 0 500 500;" xml:space="preserve">
<style type="text/css">
	.st0{fill:#6D26C2;stroke:#6D26C2;stroke-width:7;stroke-miterlimit:10;}
</style>
<g>
	<path class="st0" d="M391.7,166.2c4,0,7.2,0,10.5,0c7.3,0.1,11.1,3.6,11.4,10.9c0.2,5.2,0,10.3,0,15.5c0,38.3,0,76.7,0,115
		c0,10.9-3.1,14-13.8,14c-2.5,0-4.9,0-8.1,0c0,2.5,0,4.4,0,6.4c0,26,0,52,0,78c0,21.4-14.4,35.6-35.7,35.6
		c-75.7,0-151.3-0.1-227,0.1c-23.5,0-43-19.3-43.1-40.4c0-1.7-0.2-3.3-0.2-5c0-98.5,0.1-197.1-0.1-295.6c0-16.9,6.4-29.9,20.5-39.2
		c7.5-4.9,16-6.3,24.8-6.3c71.8-0.1,143.7-0.1,215.5,0c21.5,0,37.9,11.6,43.5,30.6c1.1,3.6,1.7,7.5,1.7,11.2
		c0.2,20.7,0.1,41.3,0.1,62C391.7,161.2,391.7,163.2,391.7,166.2z M340.2,166.6c0-2.9,0-4.7,0-6.5c0-15.8,0-31.7,0-47.5
		c0-6.6,0-6.7-6.5-6.7c-63.5,0-127,0.1-190.5-0.1c-5,0-6.5,1.2-6.5,6.4c0.2,81.5,0.1,163.1,0,244.6c0,4.8,1.4,6.2,6.2,6.2
		c63.7-0.1,127.4-0.1,191-0.1c1.9,0,3.9-0.3,5.9-0.4c0-13.8,0-27,0-40.4c-1.3-0.1-2.3-0.2-3.3-0.3c-9.6-1.2-17.9,3.4-26.4,6.5
		c-8.9,3.2-17.4,3.7-26.2-0.1c-11.4-5-23.3-7.1-35.9-6.6c-18.5,0.7-37,0.2-55.5,0.2c-8.9,0-12.4-3.5-12.4-12.4
		c0-43.7,0-87.4,0-131.1c0-8.6,3.5-12.1,12.2-12.1c23.7,0,47.3-0.1,71,0.1c4.1,0,8.2,1,12.2,2.1c5.4,1.6,10.5,4.2,16,5.5
		c3.4,0.8,7.3,1.1,10.6,0.1C314.4,170.3,325.9,164,340.2,166.6z M358.6,322c0,15.8,0,30.9,0,46c0,10-2.7,12.8-12.7,12.8
		c-71.5,0-143,0-214.5,0c-9.9,0-12.5-2.6-12.5-12.3c0-89.2,0-178.4,0-267.6c0-10.5,2.4-12.9,12.9-12.9c71.3,0,142.7,0,214,0
		c9.8,0,12.8,3,12.8,12.8c0,20.2,0,40.3,0,60.5c0,1.9-1.1,4.8,2.5,4.8c3.9,0.1,7.9,0,12,0c0.1-2.3,0.2-3.8,0.2-5.2
		c0-20.2-0.4-40.4,0.1-60.5c0.4-15.9-11.6-26.9-26.8-26.8c-72,0.3-144,0.1-216,0.1c-16.9,0-27,10.2-27,27.1
		c0,98.5,0.1,197.1-0.1,295.6c0,15.5,11.1,27.2,27.1,27.1c74.8-0.4,149.7-0.2,224.5-0.2c12.7,0,18.2-5.5,18.2-18.2
		c0-25.8,0-51.7,0-77.5c0-1.8-0.2-3.5-0.3-5.6C368.2,322,363.8,322,358.6,322z M287.3,309.1c0-5.1,0-10,0-14.8c0-32.3,0-64.7-0.1-97
		c0-1.9-0.6-5.1-1.7-5.5c-7.3-2.8-14.7-6.6-22.2-6.9c-19.9-0.9-40-0.2-60-0.4c-3.9,0-4.7,1.3-4.7,4.9c0.1,36.3,0.1,72.7,0,109
		c0,4.1,1.5,5,5.2,4.9c14-0.2,28,0.1,42-0.1c13.4-0.2,26.7-0.5,39.1,5.7C285.4,309.1,285.9,309,287.3,309.1z M394.9,184.6
		c-2.4,0-4.2,0-6,0c-15,0-30,0.4-45-0.1c-11.4-0.4-22,1.4-32.6,5.6c-4,1.6-5.5,3.4-5.5,7.8c0.2,35.3,0.1,70.7,0.1,106
		c0,1.8,0.2,3.5,0.3,5.9c2.7-0.8,4.8-1.1,6.7-2c8.4-3.7,17.2-4.6,26.3-4.5c16.7,0.2,33.3,0.1,50,0c1.8,0,3.6-0.1,5.6-0.2
		C394.9,263.5,394.9,224.5,394.9,184.6z"/>
	<path class="st0" d="M239,410.8c-3.7,0-7.3,0.2-11,0c-5.3-0.3-8.8-4-8.8-9c0-4.6,3.4-8.5,8.5-8.7c7.3-0.3,14.6-0.3,21.9,0
		c5.4,0.2,8.5,4,8.4,9.2c-0.1,5-3.6,8.4-9.1,8.6C245.7,410.9,242.4,410.8,239,410.8C239,410.8,239,410.8,239,410.8z"/>
</g>
</svg>
