<?xml version="1.0" encoding="utf-8"?>
<!-- Generator: Adobe Illustrator 27.5.0, SVG Export Plug-In . SVG Version: 6.00 Build 0)  -->
<svg version="1.1" id="Camada_1" xmlns="http://www.w3.org/2000/svg" xmlns:xlink="http://www.w3.org/1999/xlink" x="0px" y="0px"
	 viewBox="0 0 500 500" style="enable-background:new 0 0 500 500;" xml:space="preserve">
<style type="text/css">
	.st0{fill:#6D26C2;}
</style>
<g>
	<path class="st0" d="M56.14,249.79c0.04-107.58,86.87-195,195.57-194.53c106.51,0.46,193.38,86.28,193.66,194.08
		c0.29,108.72-87.09,196.61-197.42,195.24C142.45,443.28,56.23,357.91,56.14,249.79z M250.79,91.51
		c-87.76,0.01-158.63,70.65-158.74,158.21c-0.11,87.38,70.73,158.07,157.79,158.79c86.51,0.72,159.82-70.53,159.51-159.14
		C409.04,162.13,338.32,91.5,250.79,91.51z"/>
	<path class="st0" d="M182.22,249.63c0-32.49,0.06-64.98-0.04-97.47c-0.02-7.82,1.78-14.59,8.99-18.7
		c7.55-4.3,14.65-2.59,21.53,2.01c35.96,24.04,71.97,48.02,107.95,72.03c13.42,8.96,26.86,17.89,40.24,26.92
		c11.88,8.02,11.87,23.1-0.09,31.09c-49.24,32.92-98.51,65.8-147.81,98.64c-13.18,8.78-26.41,4.73-30.15-9.14
		c-0.55-2.04-0.59-4.27-0.59-6.41C182.21,315.61,182.22,282.62,182.22,249.63z M218.65,317.02c33.8-22.54,66.8-44.56,100.6-67.1
		c-34.03-22.68-66.96-44.62-100.6-67.04C218.65,228.01,218.65,271.99,218.65,317.02z"/>
</g>
</svg>
