<svg width="62" height="62" viewBox="0 0 62 62" fill="none" xmlns="http://www.w3.org/2000/svg">
<g clip-path="url(#clip0)">
<rect width="62" height="62" fill="white"/>
<g filter="url(#filter0_d)">
<path d="M126.5 48.5C126.5 65.6208 27.6731 85 10 85C-7.67311 85 -22 71.1208 -22 54C-22 36.8792 -17.6731 -53 0 -53C17.6731 -53 126.5 31.3792 126.5 48.5Z" fill="#56D062"/>
</g>
<path fill-rule="evenodd" clip-rule="evenodd" d="M42.805 19.4974C39.6732 16.46 35.5082 14.7864 31.071 14.7847C21.9278 14.7847 14.4866 21.9932 14.4829 30.853C14.4817 33.6852 15.2454 36.45 16.6971 38.8869L14.3438 47.2139L23.1374 44.9793C25.5604 46.2597 28.2882 46.9344 31.0643 46.9352H31.0712C40.2134 46.9352 47.6555 39.7261 47.6589 30.8659C47.6608 26.5719 45.9369 22.5347 42.805 19.4974ZM31.071 44.2214H31.0653C28.5914 44.2204 26.1651 43.5763 24.048 42.3596L23.5448 42.0701L18.3265 43.3962L19.7193 38.4675L19.3914 37.9622C18.0112 35.8356 17.2824 33.3777 17.2837 30.854C17.2865 23.4899 23.4716 17.4987 31.0765 17.4987C34.7591 17.4999 38.2209 18.891 40.8239 21.4156C43.4269 23.9402 44.8596 27.296 44.8584 30.8649C44.8551 38.2296 38.6704 44.2214 31.071 44.2214V44.2214ZM38.6336 34.2181C38.2193 34.017 36.1814 33.0459 35.8014 32.9117C35.4217 32.7777 35.1451 32.711 34.8691 33.1128C34.5926 33.5146 33.7984 34.4192 33.5565 34.687C33.3146 34.955 33.0731 34.9886 32.6586 34.7875C32.244 34.5866 30.9086 34.1625 29.3253 32.7945C28.0933 31.7299 27.2615 30.415 27.0196 30.0132C26.7781 29.611 27.0176 29.4147 27.2014 29.1938C27.6501 28.654 28.0994 28.0881 28.2375 27.8203C28.3759 27.5523 28.3066 27.3178 28.2028 27.1169C28.0994 26.916 27.2705 24.9396 26.9252 24.1354C26.5885 23.3528 26.2471 23.4585 25.9925 23.4462C25.751 23.4345 25.4746 23.4321 25.1981 23.4321C24.9219 23.4321 24.4728 23.5325 24.0928 23.9347C23.7129 24.3367 22.6423 25.3079 22.6423 27.2843C22.6423 29.2607 24.1275 31.1699 24.3347 31.4379C24.5418 31.7059 27.2574 35.7616 31.4151 37.5006C32.404 37.9147 33.1759 38.1615 33.778 38.3466C34.771 38.6522 35.6743 38.609 36.3886 38.5057C37.185 38.3903 38.8406 37.5342 39.1863 36.5964C39.5316 35.6584 39.5316 34.8546 39.4278 34.687C39.3244 34.5195 39.048 34.4192 38.6336 34.2181V34.2181Z" fill="white"/>
</g>
<defs>
<filter id="filter0_d" x="-38.35" y="-57.46" width="181.2" height="170.7" filterUnits="userSpaceOnUse" color-interpolation-filters="sRGB">
<feFlood flood-opacity="0" result="BackgroundImageFix"/>
<feColorMatrix in="SourceAlpha" type="matrix" values="0 0 0 0 0 0 0 0 0 0 0 0 0 0 0 0 0 0 127 0"/>
<feOffset dy="11.89"/>
<feGaussianBlur stdDeviation="8.175"/>
<feColorMatrix type="matrix" values="0 0 0 0 0.337255 0 0 0 0 0.815686 0 0 0 0 0.384314 0 0 0 0.15 0"/>
<feBlend mode="normal" in2="BackgroundImageFix" result="effect1_dropShadow"/>
<feBlend mode="normal" in="SourceGraphic" in2="effect1_dropShadow" result="shape"/>
</filter>
<clipPath id="clip0">
<rect width="62" height="62" fill="white"/>
</clipPath>
</defs>
</svg>
