<svg width="62" height="62" viewBox="0 0 62 62" fill="none" xmlns="http://www.w3.org/2000/svg">
<rect width="62" height="62" fill="white"/>
<rect width="62" height="62" fill="#FF0000"/>
<path d="M31.9184 44.341L23.4138 44.1911C20.6602 44.1389 17.8998 44.2431 15.2002 43.702C11.0934 42.8934 10.8025 38.9289 10.4981 35.6034C10.0786 30.9283 10.241 26.1682 11.0326 21.5321C11.4795 18.9307 13.2382 17.3784 15.9579 17.2095C25.1391 16.5965 34.3813 16.6692 43.5421 16.9551C44.5096 16.9814 45.4838 17.1247 46.4378 17.2878C51.1469 18.0833 51.2618 22.576 51.567 26.358C51.8715 30.179 51.7429 34.0196 51.1611 37.8146C50.6942 40.9567 49.8011 43.5917 46.0318 43.8461C41.3091 44.1787 36.6949 44.4465 31.9589 44.3612C31.9591 44.341 31.9319 44.341 31.9184 44.341ZM26.9186 36.386C30.4775 34.4166 33.9685 32.4801 37.507 30.524C33.9415 28.5546 30.4571 26.6181 26.9186 24.662V36.386Z" fill="white"/>
</svg>
