<?xml version="1.0" encoding="utf-8"?>
<!-- Generator: Adobe Illustrator 27.5.0, SVG Export Plug-In . SVG Version: 6.00 Build 0)  -->
<svg version="1.1" id="Camada_1" xmlns="http://www.w3.org/2000/svg" xmlns:xlink="http://www.w3.org/1999/xlink" x="0px" y="0px"
	 viewBox="0 0 500 500" style="enable-background:new 0 0 500 500;" xml:space="preserve">
<style type="text/css">
	.st0{fill:#6D26C2;}
</style>
<g>
	<path class="st0" d="M13.19,261.91c-0.33-25.99,17.73-48.86,43.03-54.18c3.75-0.79,5.38-2.39,6.5-6.18
		c5.12-17.25,17.29-26.66,34.7-29.8c27.83-5.02,55.79-9.46,83.47-15.22c32.46-6.76,58.57-23.92,77.8-51.17
		c1.15-1.63,2.18-3.37,3.44-4.91c3.98-4.87,5.96-10.2,6.85-16.63c2.72-19.76,20.65-34.43,40.52-34.37
		c19.46,0.06,36.38,13.17,40.42,33.45c5.1,25.6,9.41,51.36,14.02,77.06c7.84,43.7,15.71,87.4,23.45,131.13
		c2.69,15.21,6.07,30.41,7.29,45.76c1.61,20.31-12.24,36.81-32.88,41.64c-17.85,4.18-37.67-6.14-45.64-23.65
		c-0.8-1.76-1.87-3.68-3.36-4.79c-16.12-12.04-33.13-22.26-53.04-26.99c-21.18-5.03-42.24-4.58-63.39-0.02
		c-3.66,0.79-3.41,2.58-2.9,5.36c3.72,20.31,7.24,40.65,10.97,60.96c3.84,20.86-3.75,38.15-21.03,47.48
		c-24.6,13.27-55.01-2.04-60.06-30.22c-3.96-22.09-8.03-44.16-11.84-66.28c-0.55-3.18-1.83-4.46-4.89-5.18
		c-9.8-2.33-17.63-7.82-23.27-16.14c-1.88-2.77-3.67-3.42-6.99-2.95C42.78,320.79,13.62,295.7,13.19,261.91z M274.6,130.56
		c-1.34,0.8-2.01,1.01-2.39,1.46c-19.6,23.12-44.08,38.77-72.99,47.58c-3.51,1.07-3.67,3.01-3.13,6
		c6.1,33.76,12.21,67.51,18.08,101.31c0.82,4.74,2.52,6.24,7.43,5.96c25.04-1.41,49.05,3.09,71.84,13.69
		c4.27,1.98,8.46,4.13,13.91,6.8C296.31,251.75,285.5,191.43,274.6,130.56z M87.85,213.6c0.06,0.52,0.12,1.52,0.3,2.5
		c4.87,26.99,9.75,53.98,14.64,80.97c1.65,9.12,8.57,14.02,17.78,12.4c20.83-3.68,41.6-7.66,62.47-11.07
		c5.3-0.87,5.86-3.03,4.99-7.59c-3.1-16.17-5.89-32.39-8.79-48.6c-3.05-17.03-6.16-34.04-9.1-51.08c-0.64-3.68-1.92-5.09-5.94-4.1
		c-5.81,1.42-11.78,2.17-17.68,3.22c-15.24,2.71-30.48,5.38-45.71,8.17C92.74,199.87,87.73,205.69,87.85,213.6z M309.53,76.21
		c-9.16-0.01-15.88,8.22-14.33,17.67c0.94,5.74,2.03,11.46,3.06,17.19c12.26,68.43,24.52,136.87,36.8,205.3
		c1.53,8.51,2.83,17.09,4.9,25.47c1.92,7.77,9.42,11.9,16.95,10.14c7.69-1.79,12.39-8.65,11.18-16.4c-0.36-2.3-0.86-4.58-1.28-6.87
		c-10.47-58.46-20.92-116.93-31.4-175.39c-3.9-21.78-7.78-43.57-11.85-65.31C322.21,80.74,316.48,76.22,309.53,76.21z M166.1,328.49
		c-8.98,1.62-16.99,3.1-25.01,4.48c-2.46,0.42-3.35,1.49-2.88,4.09c4.03,22.09,7.87,44.22,11.97,66.3
		c1.19,6.41,6.7,10.95,12.93,11.42c6.31,0.48,12.64-3.12,14.45-9.26c1.03-3.5,0.98-7.58,0.4-11.24
		c-2.02-12.81-4.45-25.55-6.77-38.31C169.58,347.01,167.88,338.07,166.1,328.49z M73.87,289.37c-3.36-18.82-6.6-37.01-9.94-55.73
		c-10.14,1.62-16.95,6.99-21.03,15.51c-5.02,10.5-3.92,20.72,3.35,29.94C52.98,287.63,61.92,290.84,73.87,289.37z"/>
	<path class="st0" d="M417.22,210.53c0.21-6.47,4.12-11.49,10.59-12.71c14.05-2.66,28.13-5.17,42.24-7.47
		c7.04-1.14,13.56,3.68,14.85,10.37c1.31,6.83-2.67,13.98-9.55,15.39c-14.66,2.99-29.39,5.71-44.18,7.92
		C423.56,225.16,416.96,218.22,417.22,210.53z"/>
	<path class="st0" d="M406.08,171.46c-9.41-0.36-15.51-10.14-11.32-18.67c1.89-3.85,4.65-7.29,7.11-10.85
		c5.4-7.81,10.7-15.7,16.34-23.33c4.92-6.65,12.71-7.93,18.92-3.57c6.15,4.32,7.67,11.69,3.14,18.52
		c-7.27,10.96-14.88,21.71-22.5,32.44C415,169.92,410.98,171.77,406.08,171.46z"/>
	<path class="st0" d="M413.27,268.02c0.23-10.52,11.59-16.77,20.6-10.89c11.15,7.27,22.02,15,32.79,22.84
		c6.26,4.56,7.41,12.78,3.21,18.59c-4.36,6.03-11.99,7.51-18.61,3.08c-10.93-7.32-21.85-14.69-32.32-22.64
		c-3.09-2.35-4.65-6.72-6.91-10.17C412.44,268.56,412.85,268.29,413.27,268.02z"/>
</g>
</svg>
