<?xml version="1.0" encoding="utf-8"?>
<!-- Generator: Adobe Illustrator 27.5.0, SVG Export Plug-In . SVG Version: 6.00 Build 0)  -->
<svg version="1.1" id="Camada_1" xmlns="http://www.w3.org/2000/svg" xmlns:xlink="http://www.w3.org/1999/xlink" x="0px" y="0px"
	 viewBox="0 0 500 500" style="enable-background:new 0 0 500 500;" xml:space="preserve">
<style type="text/css">
	.st0{fill:#6D26C2;stroke:#6D26C2;stroke-width:9;stroke-miterlimit:10;}
</style>
<g>
	<path class="st0" d="M360.8,318.1c7-7,13.7-13.7,20.6-20.7c-0.5-0.6-1.2-1.4-1.9-2.2c-5.6-5.7-11.3-11.3-16.9-17
		c-4-4-4.4-7-1.6-11.7c5.1-8.5,8.8-17.6,11.2-27.2c1.3-5.3,3.8-7.1,9.4-7.2c8.8,0,17.7,0,26.9,0c0-9.7,0-19.2,0-29.2
		c-7.8,0-15.7,0-23.5,0c-9.9,0-10.5-0.9-13.6-10.1c-2.8-8.1-6.3-15.9-10-23.7c-2.8-5.8-2.9-8.3,1.8-12.9
		c6.2-6.2,12.4-12.3,18.4-18.3c-6.9-6.9-13.7-13.7-20.7-20.7c-5.6,5.6-11.5,11.4-17.4,17.3c-5.9,5.9-7.6,5.7-15,2.2
		c-8-3.8-16.5-7-24.9-9.9c-5.7-2-7.8-4-7.8-10.1c0-7.6,0-15.2,0-22.8c0-1.2-0.1-2.4-0.2-3.8c-9.7,0-19.1,0-29,0c0,4.9,0,9.7,0,14.6
		c0,4.5,0.1,9,0,13.5c-0.1,4.4-2,7.1-6.2,8.2c-10.2,2.5-19.9,6.5-29,11.8c-4,2.4-7.1,1.7-10.7-1.9c-6.4-6.3-12.7-12.7-18.7-18.8
		c-7,7-13.8,13.8-20.9,20.9c5.7,5.7,11.9,11.9,18.1,18c4.6,4.6,4.5,7.2,1.8,13c-4,8.5-7.5,17.3-10.7,26.2c-2,5.5-4,7.6-9.9,7.6
		c-8.8,0-17.7,0-26.9,0c0,1.7,0.1,3,0,4.3c-0.4,4.3-3.8,7.5-8,7.4c-4.2,0-7.4-3.2-7.8-7.5c-1.4-13.9,7.5-21,18.7-20.3
		c5.6,0.4,11.2,0,16.8,0.1c1.9,0,2.8-0.5,3.5-2.4c2.5-6.6,5.1-13.2,8-20.5c-4.3-4.3-9.1-9-13.8-13.7c-8.5-8.5-8.5-17.3-0.1-25.8
		c6.2-6.2,12.3-12.4,18.5-18.5c7.3-7.2,16.5-7.3,23.9-0.1c4.5,4.4,8.8,8.9,13.3,13.2c0.8,0.8,2.5,1.5,3.3,1.2
		c6.9-2.8,13.7-5.8,20.9-8.9c0-6.7,0-13.8,0-20.9c0.1-10.3,6.5-16.9,16.8-17c9.2-0.1,18.5-0.1,27.7,0c9.9,0.1,16.3,6.6,16.6,16.5
		c0.2,6.5,0,13,0.1,19.5c0,1.1,0.9,2.7,1.7,3.1c6.8,2.8,13.6,5.4,20.9,8.2c4.5-4.5,9.4-9.4,14.2-14.2c8-8,16.9-8,25,0
		c6.2,6.2,12.4,12.3,18.5,18.5c7.7,7.8,7.7,16.8-0.1,24.7c-4.8,4.9-9.7,9.7-14.3,14.2c2.9,7.3,5.6,14.3,8.5,21.1
		c0.4,0.8,2.1,1.5,3.2,1.5c5.7,0.2,11.5,0,17.2,0.1c12,0.1,18.3,6.3,18.3,18.2c0,8.5,0,17,0,25.5c-0.1,11-6.5,17.4-17.5,17.5
		c-6.1,0-12.2,0.1-18.3,0c-2,0-2.8,0.7-3.4,2.5c-2.3,5.9-4.6,11.8-7.3,17.6c-0.8,1.8-0.6,2.8,0.8,4.2c4.4,4.3,8.7,8.6,13,13
		c7.6,7.7,7.6,16.9,0,24.5c-6.3,6.4-12.7,12.7-19.1,19.1c-7.5,7.4-16.7,7.4-24.2,0c-4.4-4.4-8.9-8.8-13.2-13.3
		c-1.4-1.4-2.4-1.5-4.2-0.7c-5.7,2.5-11.4,5-17.3,7.1c-2.3,0.8-2.8,1.9-2.7,4c0.1,6-0.1,12,0.1,18c0.3,11-7.7,19.4-21.6,17.1
		c-3.6-0.6-6.2-4.2-6.1-7.9c0.1-3.9,3-7.1,7-7.6c1.5-0.2,2.9-0.2,4.8-0.3c0-8.6,0-17.1,0-25.5c0-7.7,1.6-9.1,8.8-11.6
		c8.5-3,16.9-6.6,25.1-10.4c5.6-2.6,8.2-2.6,12.7,1.8C348.4,305.6,354.5,311.8,360.8,318.1z"/>
	<path class="st0" d="M201.1,245.1c3.9,1.6,7.3,3.2,10.8,4.3c1.1,0.4,2.9,0.1,3.7-0.7c2.4-2,4.4-4.4,6.7-6.5
		c6.6-6.2,15.6-6.3,22.3-0.2c4.1,3.8,8.1,7.8,11.9,11.9c5.9,6.4,5.8,15.2,0.1,21.7c-0.2,0.2-0.3,0.4-0.5,0.6
		c-2.6,2.8-6.7,5.3-7.4,8.5c-0.6,3,2.6,6.7,3.7,10.3c0.7,2,1.7,2.4,3.5,2.4c2.9-0.1,5.7-0.1,8.6,0c9.2,0.1,15.9,6.3,16.3,15.6
		c0.3,5.6,0.3,11.2,0,16.8c-0.5,9.2-7.2,16-16.4,15.3c-8.2-0.7-13.3,1.2-15.2,9.8c-0.6,2.6-1,4.2,1.2,6c2.2,1.8,4.2,3.9,6.1,6.1
		c5.7,6.4,5.8,15.1,0.1,21.4c-3.9,4.3-8.1,8.5-12.4,12.4c-6.4,5.8-15.3,5.6-21.7-0.2c-2.4-2.2-4.5-4.7-7-6.8c-0.9-0.7-2.7-1-3.7-0.6
		c-3.5,1.2-6.9,2.7-10.8,4.3c0,3.5,0,7.2,0,10.9c-0.1,9.6-6.5,16.3-16,16.7c-5.4,0.2-10.7,0.2-16.1,0c-9.3-0.4-15.7-7.2-15.8-16.5
		c0-3.6,1.2-8-0.5-10.6c-1.6-2.5-6.3-2.9-9.4-4.6c-2.3-1.3-3.8-0.9-5.4,1c-1.9,2.2-4,4.2-6.1,6.1c-6.6,6-15.4,6.1-22,0.1
		c-4.1-3.8-8.1-7.8-11.9-11.9c-6.1-6.6-6-15.6,0.2-22.3c2.1-2.3,4.5-4.3,6.5-6.7c0.7-0.9,1-2.6,0.6-3.7c-0.9-2.8-2.4-5.5-3.3-8.3
		c-0.7-2.1-1.8-2.6-3.8-2.5c-2.7,0.2-5.5,0.1-8.2,0c-9.4-0.1-16.1-6.4-16.5-15.8c-0.2-5.5-0.2-11,0-16.5c0.4-9.3,7.2-16.2,16.6-15.5
		c8,0.6,12.9-1.2,15-9.6c0.7-2.8,1-4.4-1.3-6.3c-2.1-1.8-4-3.8-5.8-5.8c-5.8-6.4-6-15.3-0.1-21.7c3.9-4.2,8-8.3,12.2-12.2
		c6.4-5.9,15.2-5.9,21.7,0c2.5,2.3,4.7,4.8,7.3,7c0.8,0.7,2.4,0.8,3.5,0.6c1.4-0.3,2.7-1.1,4.1-1.7c6.8-2.8,6.6-2.9,6.9-10.4
		c0.2-4.1,0.8-8.5,2.5-12.2c2.5-5.2,7.5-7.5,13.3-7.7c5.4-0.2,10.7-0.2,16.1,0c9.5,0.3,15.9,7.1,16,16.7
		C201.2,237.8,201.1,241.4,201.1,245.1z M121.2,389c3.6-3.7,7.1-7.4,10.7-11c4.4-4.5,7.1-4.6,12.7-1.9c5.6,2.7,11.4,5,17.2,7
		c5.5,1.9,7.3,3.8,7.4,9.6c0,5.3,0,10.7,0,16.1c5.6,0,10.7,0,16.1,0c0-5.3,0-10.3,0-15.2c0-6.9,1.6-8.6,8-10.7
		c5.8-1.9,11.4-4.3,16.9-6.9c5.1-2.4,8-2.3,12.1,1.7c3.8,3.8,7.5,7.6,10.7,10.8c4-3.9,7.7-7.6,11.4-11.3c0.1,0.2,0.1,0.1,0,0
		c-3.5-3.5-7-7.1-10.5-10.6c-4.4-4.4-4.5-7.2-1.8-12.7c2.7-5.3,5-10.8,6.9-16.5c2.2-6.5,3.8-8.1,10.6-8.1c5.1,0,10.1,0,15.2,0
		c0-5.6,0-10.7,0-16.1c-5.7,0-11.2,0.1-16.6,0c-5.1-0.1-7.2-2.1-8.9-6.9c-2.2-6.2-4.7-12.3-7.5-18.2c-2.2-4.7-2.2-7.7,1.5-11.5
		c3.9-3.9,7.9-7.6,11.4-11c-4.1-4.1-7.7-7.8-11.6-11.8c-3.6,3.7-7.4,7.7-11.2,11.6c-3.5,3.5-6.7,3.6-11.2,1.5
		c-5.8-2.7-11.8-5.2-17.9-7.3c-5.5-1.9-7.3-3.8-7.4-9.6c0-5.3,0-10.7,0-16.1c-5.6,0-10.7,0-16.1,0c0,5.5,0,10.8,0,16
		c0,5.9-1.8,7.8-7.3,9.7c-6.1,2.1-12.1,4.6-17.9,7.3c-4.7,2.2-7.7,2.1-11.5-1.6c-3.9-3.9-7.6-7.8-11.4-11.7c-4,4-7.6,7.6-11.2,11.2
		c0.1,0.2,0.1,0.4,0.2,0.6c3.5,3.6,7,7.1,10.5,10.6c4.4,4.4,4.5,7.2,1.8,12.7c-2.7,5.4-5.1,11.1-7,16.8c-2.1,6-3.8,7.7-10.1,7.7
		c-5.2,0-10.4,0-15.6,0c0,5.6,0,10.7,0,16.1c5.7,0,11.2,0,16.6,0c5.1,0.1,7.2,2.1,8.9,6.9c2.2,6.1,4.6,12.1,7.4,17.9
		c2.5,5.1,2.4,8.1-1.6,12.1c-3.8,3.8-7.7,7.5-11.4,11.1C113.5,381.3,117.1,384.9,121.2,389z"/>
	<path class="st0" d="M279.1,159.2c29.7-1.7,57.5,22.6,59.9,52.3c2.6,32.3-18.1,58.8-50,63.9c-2.3,0.4-4.7,0.4-7.1,0.5
		c-5.4,0.1-8.9-3.1-8.9-7.9c0-4.6,3.3-7.8,8.5-7.9c10.4-0.3,19.5-3.7,27.4-10.5c14.1-12.2,18.5-32.5,10.7-49.4
		c-7.8-17.1-25.7-27-44.3-24.5c-18.5,2.5-33.3,17-36.1,35.4c-0.3,2.2-0.4,4.5-0.6,6.7c-0.4,4.8-3.7,8-8.2,8
		c-4.5-0.1-7.6-3.4-7.6-8.4c-0.5-28.9,23.1-55.1,51.9-57.6C276.1,159.4,277.6,159.3,279.1,159.2z"/>
	<path class="st0" d="M217,321.3c-0.1,22.4-18,40-40.3,39.8c-21.9-0.2-39.4-18-39.3-40c0.1-22.2,17.9-39.7,40.1-39.6
		C199.4,281.6,217.1,299.4,217,321.3z M201.1,321.4c0-13.3-10.8-24-24-24c-13.2,0-24,10.8-23.9,24.1c0.1,13.1,10.7,23.7,23.8,23.8
		C190.3,345.4,201.1,334.6,201.1,321.4z"/>
</g>
</svg>
