<?xml version="1.0" encoding="utf-8"?>
<!-- Generator: Adobe Illustrator 27.5.0, SVG Export Plug-In . SVG Version: 6.00 Build 0)  -->
<svg version="1.1" id="Camada_1" xmlns="http://www.w3.org/2000/svg" xmlns:xlink="http://www.w3.org/1999/xlink" x="0px" y="0px"
	 viewBox="0 0 500 500" style="enable-background:new 0 0 500 500;" xml:space="preserve">
<style type="text/css">
	.st0{fill:#6D26C2;}
</style>
<g>
	<path class="st0" d="M113.12,142.25c-0.74-7.81-1.41-14.69-2.03-21.57c-0.63-7.09-1.59-14.18-1.7-21.29
		c-0.15-9.85,9.13-18.73,19.34-19.2c11.15-0.5,20.91,7.26,21.98,17.53c2.36,22.62,4.63,45.24,7.16,67.84
		c0.23,2.02,1.57,4.67,3.22,5.67c22.03,13.44,44.21,26.64,66.36,39.88c0.25,0.15,0.64,0.06,1.56,0.11c0.11-1.53,0.32-3.08,0.32-4.63
		c0.02-24.34-0.06-48.67,0.09-73.01c0.02-3.42-1.2-5.42-3.86-7.39c-18.05-13.4-36.09-26.81-53.9-40.52
		c-8.83-6.8-9.86-19.16-3.02-28.63c6.15-8.5,18.72-10.89,27.65-4.68c9.43,6.55,18.47,13.67,27.69,20.53
		c1.42,1.06,2.9,2.04,5.36,3.76c0-7.76-0.12-14.49,0.03-21.22c0.18-7.8-0.32-15.77,1.15-23.34c2.07-10.65,10.82-16.12,20.78-15.7
		c11.16,0.47,19.35,8.66,19.65,19.43c0.33,11.49,0.12,23,0.15,34.5c0,1.78,0,3.55,0,6.74c6.89-5.1,12.71-9.37,18.49-13.7
		c4.67-3.49,9.22-7.14,13.95-10.55c8.69-6.28,20.92-4.7,28,3.48c7.22,8.34,6.94,20.8-1.28,28.37c-5.49,5.05-11.75,9.28-17.73,13.79
		c-12.77,9.62-25.65,19.1-38.32,28.86c-1.57,1.21-2.95,3.77-2.97,5.72c-0.2,25.17-0.13,50.34-0.11,75.51c0,0.82,0.19,1.63,0.38,3.12
		c1.57-0.67,2.94-1.07,4.12-1.78c21.16-12.64,42.23-25.42,63.5-37.88c3.47-2.03,3.63-5.08,3.98-7.95
		c1.61-13.16,2.84-26.37,4.24-39.55c1.02-9.59,1.82-19.21,3.19-28.75c1.09-7.57,8.36-13.45,17.84-15.25
		c6.98-1.33,15.92,3.02,20.11,9.55c3.66,5.71,3.76,11.87,2.96,18.27c-1.25,10.03-2.39,20.07-3.52,30.12
		c-0.1,0.92,0.2,1.88,0.42,3.67c7.46-4.42,14.41-8.54,21.36-12.68c4-2.38,7.95-4.86,11.99-7.18c10.47-6.02,22.86-3.09,28.84,6.75
		c6.14,10.11,3.06,22.6-7.41,29.06c-10.34,6.39-20.83,12.55-31.24,18.82c-0.56,0.33-1.03,0.8-2.23,1.73c4,1.68,7.54,3.2,11.11,4.66
		c8.16,3.34,16.41,6.47,24.48,10.02c11.23,4.93,16.74,16.87,12.54,26.49c-5.31,12.15-17.03,16.98-29.28,11.96
		c-18.48-7.56-36.99-15.06-55.37-22.85c-5.88-2.49-10.64-2.88-16.6,0.92c-19.79,12.62-40.09,24.44-60.19,36.58
		c-1.41,0.85-2.77,1.79-4.85,3.14c8.48,5.17,16.49,10.08,24.53,14.94c14.68,8.87,29.42,17.64,44.04,26.6
		c2.88,1.77,5.41,1.84,8.42,0.6c19.7-8.1,39.46-16.05,59.14-24.18c10.07-4.16,19.91-2.44,26.14,4.5
		c9.39,10.47,6.05,27.06-7.24,32.98c-10.79,4.81-21.84,9.02-32.76,13.51c-1.22,0.5-2.39,1.11-4.31,2
		c8.47,5.08,16.42,9.83,24.36,14.61c3.43,2.06,6.91,4.04,10.22,6.28c9.71,6.57,12.42,18.82,6.43,28.55
		c-5.94,9.66-18.23,12.73-28.42,6.86c-9.23-5.32-18.28-10.94-27.43-16.4c-1.94-1.16-3.96-2.17-6.95-3.81
		c0.6,6.19,1.06,11.25,1.58,16.3c0.83,8.07,2.12,16.12,2.43,24.21c0.41,10.97-6.91,19.04-18.45,21.32
		c-8.23,1.63-19.05-4.15-21.77-13.09c-2.1-6.89-2.26-14.38-3.11-21.63c-2.03-17.28-3.92-34.58-6-51.85c-0.17-1.43-1.03-3.32-2.17-4
		c-22.08-13.37-44.24-26.6-66.4-39.83c-0.52-0.31-1.2-0.34-2.34-0.65c-0.13,1.91-0.33,3.5-0.34,5.09
		c-0.02,23.84,0.06,47.67-0.09,71.51c-0.02,3.88,1.16,6.42,4.33,8.75c16.92,12.41,33.67,25.06,50.52,37.57
		c10.59,7.86,13.67,18.58,8.11,28.72c-6.15,11.22-20.75,14.36-30.99,6.66c-8.92-6.71-17.81-13.45-26.73-20.15
		c-1.29-0.97-2.69-1.8-4.86-3.24c-0.13,2.55-0.3,4.27-0.3,5.99c-0.03,10.83,0.06,21.67-0.05,32.5
		c-0.13,12.72-8.58,21.68-20.44,21.86c-11.88,0.19-21.19-9.54-21.27-22.33c-0.07-10.67-0.01-21.34-0.02-32c0-1.62,0-3.24,0-6.17
		c-6.18,4.58-11.46,8.47-16.71,12.39c-4.93,3.69-9.76,7.53-14.76,11.13c-8.83,6.34-19.95,5.61-27.45-1.62
		c-7.18-6.93-8.42-18.3-2.33-26.98c2.22-3.17,5.59-5.66,8.75-8.03c16.5-12.42,33.13-24.66,49.6-37.11c1.38-1.04,2.76-3.15,2.77-4.76
		c0.17-25.84,0.11-51.67,0.09-77.51c0-0.61-0.26-1.21-0.58-2.6c-7.48,4.43-14.6,8.6-21.67,12.84c-14.7,8.83-29.32,17.8-44.11,26.47
		c-3.78,2.22-4.99,4.98-5.34,9.24c-1.09,13.38-2.76,26.71-4.2,40.07c-0.87,8.1-1.97,16.19-2.57,24.31
		c-0.82,11.09-9.87,19.17-21.62,18.91c-10.93-0.24-20.29-8.97-19.79-19.63c0.6-12.73,2.23-25.41,3.41-38.11
		c0.1-1.12,0.13-2.25,0.24-4.31c-2.01,0.99-3.45,1.59-4.77,2.37c-9.58,5.72-19.14,11.48-28.7,17.22c-10.51,6.31-23.12,3.5-29.23-6.5
		c-6.29-10.29-2.95-22.91,7.73-29.31c10.96-6.57,21.9-13.18,33.61-20.23c-10.89-4.44-21.02-8.54-31.11-12.71
		c-3.07-1.27-6.25-2.45-9.01-4.24c-9.1-5.89-12.28-17.69-7.47-26.75c5.43-10.24,17.54-14.02,28.91-9.31
		c20.14,8.34,40.33,16.54,60.55,24.66c1.45,0.58,3.72,0.72,4.97-0.02c23.51-13.87,46.92-27.9,71.14-42.37
		c-4.16-2.61-7.68-4.89-11.27-7.05c-18.55-11.16-37.17-22.21-55.63-33.5c-4.12-2.52-7.64-3.24-12.36-1.22
		c-18.96,8.11-38.15,15.7-57.18,23.65c-11.55,4.83-23.47,1.19-28.84-9.13c-5.69-10.92-0.79-24.15,10.89-28.99
		c11.81-4.89,23.7-9.61,36.47-14.77c-7.56-4.54-14.35-8.62-21.13-12.7c-4.99-3.01-10.06-5.9-14.95-9.07
		c-8.62-5.6-10.97-18.81-5.15-28.09c5.9-9.41,18.25-12.49,28.02-6.79c9.78,5.71,19.43,11.63,29.16,17.44
		C109.24,140.29,110.83,141.04,113.12,142.25z"/>
</g>
</svg>
