<?xml version="1.0" encoding="utf-8"?>
<!-- Generator: Adobe Illustrator 27.5.0, SVG Export Plug-In . SVG Version: 6.00 Build 0)  -->
<svg version="1.1" id="Camada_1" xmlns="http://www.w3.org/2000/svg" xmlns:xlink="http://www.w3.org/1999/xlink" x="0px" y="0px"
	 viewBox="0 0 500 500" style="enable-background:new 0 0 500 500;" xml:space="preserve">
<style type="text/css">
	.st0{fill:#6D26C2;}
</style>
<g>
	<path class="st0" d="M386,236.01c-10.79,4.48-20.5,8.35-30.01,12.68c-1.26,0.58-2.03,3.52-2.04,5.37
		c-0.13,23.67-0.56,47.35,0.08,71c0.39,14.39-6.43,23.55-17.89,30.46c-13.07,7.88-27.67,11.52-42.41,14.01
		c-27.35,4.63-54.86,5.45-82.56,2.56c-16.48-1.72-32.61-4.58-48.05-10.38c-7.07-2.66-13.88-6.52-20.05-10.9
		c-7.39-5.24-11.13-12.74-11.02-22.31c0.29-24.33-0.05-48.67,0.22-73c0.05-4.82-1.59-7.03-5.9-8.71
		c-13.18-5.12-26.17-10.74-39.32-15.94c-9.18-3.63-14.33-10.12-14.75-19.94c-0.39-9.27,4.91-16.53,14.62-20.51
		c46.51-19.05,93.04-38.03,139.55-57.09c11.04-4.52,21.86-4.48,32.97,0.09c46.63,19.18,93.35,38.17,140.03,57.22
		c9.89,4.04,14,11.69,13.97,22.04c-0.05,15.67,0.04,31.33-0.03,47c-0.02,3.77,0.66,6.55,3.88,9.45c3.36,3.03,5.68,7.71,7.23,12.11
		c1.8,5.11,2.34,10.67,3.31,16.06c2.16,12.04-4.58,22.37-16.72,24c-7.52,1.01-15.41,1.04-22.92,0c-12.43-1.72-19.24-13-16.46-25.63
		c1.21-5.52,1.97-11.22,3.98-16.44c1.54-4.01,4.68-7.41,7.16-11.05c0.98-1.43,2.95-2.75,3-4.17C386.13,255.05,386,246.08,386,236.01
		z M110.96,210.6c2.37,1.15,3.78,1.92,5.26,2.52c40.81,16.62,81.61,33.27,122.5,49.68c2.46,0.99,6.02,0.92,8.5-0.08
		c39.02-15.73,77.95-31.69,116.9-47.62c3.39-1.39,6.72-2.94,10.43-4.58c-1.01-0.7-1.38-1.07-1.83-1.25
		c-41.61-16.87-83.19-33.82-124.91-50.4c-3.14-1.25-7.69-0.94-10.91,0.34c-29.65,11.82-59.16,24.02-88.71,36.11
		C136.11,200.28,124.03,205.24,110.96,210.6z M325.91,261.01c-2.28,0.84-4.13,1.45-5.93,2.19c-20.64,8.4-41.28,16.77-61.89,25.24
		c-9.85,4.05-19.63,4.41-29.57,0.29c-17.66-7.32-35.36-14.55-53.06-21.76c-4.98-2.03-10.04-3.86-15.71-6.04c0,2.75,0,4.56,0,6.37
		c0,16.66,0,33.31,0,49.97c0,14.06,0.02,14,13.55,18.89c20.46,7.39,41.84,9.46,63.29,9.65c15.92,0.15,31.91-1.21,47.76-2.88
		c12.89-1.36,25.46-4.72,37.14-10.74c3.24-1.67,4.87-3.8,4.83-7.78c-0.2-19.49-0.09-38.98-0.1-58.47
		C326.22,264.5,326.05,263.05,325.91,261.01z"/>
</g>
</svg>
