<?xml version="1.0" encoding="utf-8"?>
<!-- Generator: Adobe Illustrator 27.5.0, SVG Export Plug-In . SVG Version: 6.00 Build 0)  -->
<svg version="1.1" id="Camada_1" xmlns="http://www.w3.org/2000/svg" xmlns:xlink="http://www.w3.org/1999/xlink" x="0px" y="0px"
	 viewBox="0 0 500 500" style="enable-background:new 0 0 500 500;" xml:space="preserve">
<style type="text/css">
	.st0{fill:#6D26C2;}
</style>
<g>
	<path class="st0" d="M250.15,139.29c63.32,1.46,111.84,50.35,111.29,112.54c-0.55,62.44-49.36,110.59-111.52,110.47
		c-63.29-0.12-111.75-49.9-111.24-112.23C139.18,187.51,188.36,140.53,250.15,139.29z M174.83,250.75
		c-0.07,41.62,33.49,75.29,75.16,75.42c41.29,0.13,75.27-33.61,75.29-74.77c0.02-41.8-33.5-75.67-74.91-75.67
		C208.62,175.73,174.9,209.21,174.83,250.75z"/>
	<path class="st0" d="M232.23,82.45c0-6.33-0.13-12.66,0.03-18.99c0.25-9.63,8.21-17.28,17.78-17.3
		c9.58-0.01,17.67,7.61,17.81,17.24c0.19,12.99,0.19,25.99,0,38.98c-0.14,9.64-8.19,17.29-17.76,17.3
		c-9.55,0.02-17.58-7.64-17.83-17.25C232.09,95.78,232.23,89.11,232.23,82.45z"/>
	<path class="st0" d="M82.1,233.11c6.33,0,12.66-0.1,18.99,0.02c9.94,0.2,17.73,8.19,17.67,17.92c-0.06,9.75-7.85,17.61-17.88,17.71
		c-12.66,0.13-25.33,0.14-37.99-0.01c-9.96-0.12-17.72-8.14-17.67-17.91c0.05-9.76,7.84-17.54,17.87-17.72
		C69.44,233.02,75.77,233.11,82.1,233.11z"/>
	<path class="st0" d="M418.25,268.8c-6.33,0-12.66,0.09-18.99-0.02c-10.04-0.18-17.83-7.94-17.9-17.69
		c-0.07-9.75,7.7-17.82,17.64-17.94c12.83-0.15,25.66-0.16,38.49,0.01c9.67,0.13,17.34,8.1,17.41,17.66
		c0.07,9.73-7.72,17.74-17.65,17.95C430.91,268.9,424.58,268.79,418.25,268.8z"/>
	<path class="st0" d="M267.91,419.11c0,6.16,0.08,12.33-0.02,18.49c-0.15,10.3-8.05,18.22-17.96,18.15
		c-9.75-0.07-17.59-7.87-17.69-17.9c-0.13-12.49-0.11-24.99-0.01-37.48c0.09-10.3,8.03-18.21,17.96-18.14
		c9.94,0.07,17.58,7.96,17.71,18.39C267.98,406.78,267.92,412.95,267.91,419.11z"/>
	<path class="st0" d="M143.73,338.01c7.85,0.97,13.43,4.28,16.51,10.86c3.11,6.64,2.98,13.68-2.16,19.18
		c-9.31,9.97-18.95,19.67-28.95,28.96c-6.93,6.43-17.75,5.4-24.31-1.38c-6.36-6.57-7.04-17.2-0.68-23.98
		c9.22-9.84,18.78-19.37,28.67-28.53C135.62,340.52,140.05,339.66,143.73,338.01z"/>
	<path class="st0" d="M379.88,100.98c9.22,0.5,14.85,3.65,18.07,10.19c3.29,6.7,3.03,13.63-2.11,19.12
		c-9.31,9.97-18.93,19.71-28.95,28.97c-6.79,6.27-17.44,5.22-23.92-1.32c-6.52-6.58-7.43-17.07-1.08-23.92
		c9.28-10,19.03-19.59,29.03-28.88C373.62,102.64,377.92,101.85,379.88,100.98z"/>
	<path class="st0" d="M162.94,144.79c-0.97,7.8-4.3,13.36-10.91,16.41c-6.67,3.08-13.68,2.88-19.19-2.29
		c-9.83-9.24-19.43-18.76-28.58-28.67c-6.22-6.73-5.28-17.02,1.14-23.57c6.48-6.61,16.79-7.94,23.52-1.81
		c10.22,9.3,19.92,19.2,29.34,29.31C160.75,136.84,161.43,141.21,162.94,144.79z"/>
	<path class="st0" d="M337.1,357.18c1.07-7.87,4.38-13.45,11-16.48c6.67-3.06,13.68-2.86,19.19,2.3
		c9.73,9.11,19.21,18.52,28.3,28.26c6.56,7.03,5.66,17.61-1.21,24.34c-6.69,6.55-17.09,7.28-23.98,0.85
		c-9.62-8.98-18.97-18.29-27.9-27.95C339.79,365.56,338.85,361,337.1,357.18z"/>
</g>
</svg>
