<?xml version="1.0" encoding="utf-8"?>
<!-- Generator: Adobe Illustrator 27.5.0, SVG Export Plug-In . SVG Version: 6.00 Build 0)  -->
<svg version="1.1" id="Camada_1" xmlns="http://www.w3.org/2000/svg" xmlns:xlink="http://www.w3.org/1999/xlink" x="0px" y="0px"
	 viewBox="0 0 500 500" style="enable-background:new 0 0 500 500;" xml:space="preserve">
<style type="text/css">
	.st0{fill:none;stroke:#6D26C2;stroke-width:29;stroke-miterlimit:10;}
	.st1{fill:none;stroke:#6D26C2;stroke-width:26;stroke-miterlimit:10;}
</style>
<g>
	<path class="st0" d="M252.7,140.9c4.6,1.1,9.4,1.7,13.7,3.5c18.2,7.3,29.2,20.7,32.1,40.1c3.6,24.8-11,47.6-34.8,55.4
		c-27.1,8.8-57-7.6-64.1-35.3c-6.8-26.6,7.7-53.1,33.7-61.4c3.5-1.1,7.3-1.6,10.9-2.4C247.1,140.9,249.9,140.9,252.7,140.9z"/>
	<path class="st0" d="M332.4,358.1c-56,0-111.8,0-167.8,0c0-0.8,0-1.6,0-2.3c0-13.2,0-26.3,0-39.5c0.1-20.8,7.7-38.2,23.6-51.6
		c11.1-9.4,24-14.7,38.5-15.1c15-0.4,30-0.4,45,0.1c11.8,0.4,22.7,4.5,32.4,11.3c14.1,9.9,23.2,23.3,26.8,40.3
		c1,4.6,1.5,9.4,1.5,14.1c0.2,13.8,0.1,27.6,0.1,41.4C332.4,357.1,332.4,357.5,332.4,358.1z"/>
</g>
<g>
	<path class="st1" d="M391,202.9c2.7,0.7,5.6,1,8.2,2.1c10.9,4.3,17.5,12.4,19.2,24c2.2,14.8-6.6,28.4-20.8,33.1
		c-16.2,5.3-34.1-4.6-38.3-21c-4.1-15.9,4.6-31.7,20.1-36.6c2.1-0.7,4.3-1,6.5-1.4C387.6,202.9,389.3,202.9,391,202.9z"/>
	<path class="st1" d="M438.5,332.6c-33.4,0-66.7,0-100.2,0c0-0.5,0-0.9,0-1.4c0-7.9,0-15.7,0-23.6c0.1-12.4,4.6-22.8,14.1-30.8
		c6.6-5.6,14.3-8.8,23-9c8.9-0.2,17.9-0.2,26.8,0c7.1,0.2,13.5,2.7,19.3,6.8c8.4,5.9,13.9,13.9,16,24c0.6,2.7,0.9,5.6,0.9,8.4
		c0.1,8.2,0,16.5,0,24.7C438.5,332,438.5,332.2,438.5,332.6z"/>
</g>
<g>
	<path class="st1" d="M112.1,202.9c2.7,0.7,5.6,1,8.2,2.1c10.9,4.3,17.5,12.4,19.2,24c2.2,14.8-6.6,28.4-20.8,33.1
		c-16.2,5.3-34.1-4.6-38.3-21c-4.1-15.9,4.6-31.7,20.1-36.6c2.1-0.7,4.3-1,6.5-1.4C108.7,202.9,110.4,202.9,112.1,202.9z"/>
	<path class="st1" d="M159.7,332.6c-33.4,0-66.7,0-100.2,0c0-0.5,0-0.9,0-1.4c0-7.9,0-15.7,0-23.6c0.1-12.4,4.6-22.8,14.1-30.8
		c6.6-5.6,14.3-8.8,23-9c8.9-0.2,17.9-0.2,26.8,0c7.1,0.2,13.5,2.7,19.3,6.8c8.4,5.9,13.9,13.9,16,24c0.6,2.7,0.9,5.6,0.9,8.4
		c0.1,8.2,0,16.5,0,24.7C159.7,332,159.7,332.2,159.7,332.6z"/>
</g>
</svg>
