<?xml version="1.0" encoding="utf-8"?>
<!-- Generator: Adobe Illustrator 27.5.0, SVG Export Plug-In . SVG Version: 6.00 Build 0)  -->
<svg version="1.1" id="Camada_1" xmlns="http://www.w3.org/2000/svg" xmlns:xlink="http://www.w3.org/1999/xlink" x="0px" y="0px"
	 viewBox="0 0 500 500" style="enable-background:new 0 0 500 500;" xml:space="preserve">
<style type="text/css">
	.st0{fill:#6D26C2;}
</style>
<g>
	<path class="st0" d="M214.26,289.04c-7.45-0.44-14.07-0.92-20.7-1.22c-13.98-0.64-27.98-0.87-41.93-1.89
		c-11.86-0.87-17.72-10.45-13.65-21.67c6.12-16.88,12.44-33.7,18.7-50.53c12.57-33.82,25.16-67.64,37.73-101.46
		c4.09-11.02,8.34-14.01,20.12-14.01c31.18,0,62.36,0.43,93.52-0.19c15.31-0.3,23.79,12.57,15.6,26.73
		c-13.99,24.21-27.05,48.96-40.49,73.49c-0.71,1.3-1.31,2.65-2.34,4.76c3.5,0.32,6.52,0.77,9.56,0.85c18.49,0.49,36.99,1,55.49,1.3
		c7.28,0.12,13.09,2.46,16.23,9.36c3.07,6.73,1.07,12.56-3.52,17.93c-45.85,53.56-91.69,107.12-137.45,160.76
		c-4.67,5.47-10.14,8.03-17.19,6.46c-5.91-1.31-9.68-5.22-11-11.02c-0.6-2.64-0.5-5.65,0.11-8.31
		c6.49-28.17,13.15-56.31,19.76-84.45C213.29,293.84,213.69,291.75,214.26,289.04z M314.63,236c-2.2-0.27-3.17-0.46-4.14-0.49
		c-17.81-0.59-35.65-1.95-53.43-1.49c-14.5,0.37-22.27-13.12-15.01-25.71c13.71-23.78,26.53-48.08,39.71-72.16
		c1.01-1.85,1.95-3.73,3.42-6.53c-2.72,0-4.47,0-6.23,0c-17.33,0-34.66,0.16-51.99-0.11c-4.35-0.07-6.39,1.18-7.92,5.34
		c-14.14,38.54-28.51,76.99-42.8,115.47c-0.61,1.65-1.06,3.37-1.7,5.45c1.91,0.2,3.19,0.41,4.48,0.47
		c17.3,0.72,34.61,1.35,51.91,2.14c14.76,0.68,20.6,8.55,17.19,22.87c-3.03,12.76-6.05,25.53-9.02,38.31
		c-0.27,1.17-0.16,2.42-0.32,5.15C264.47,294.66,289.19,265.76,314.63,236z"/>
</g>
</svg>
