<?xml version="1.0" encoding="utf-8"?>
<!-- Generator: Adobe Illustrator 27.5.0, SVG Export Plug-In . SVG Version: 6.00 Build 0)  -->
<svg version="1.1" id="Camada_1" xmlns="http://www.w3.org/2000/svg" xmlns:xlink="http://www.w3.org/1999/xlink" x="0px" y="0px"
	 viewBox="0 0 500 500" style="enable-background:new 0 0 500 500;" xml:space="preserve">
<style type="text/css">
	.st0{fill:#6D26C2;}
</style>
<g>
	<path class="st0" d="M248.58,494.91c-6.63-0.69-13.26-1.38-19.89-2.07c-43.62-4.59-82.17-21.25-115.43-49.66
		c-41.18-35.17-66.99-79.74-73.75-133.37c-10.55-83.69,18.08-152.4,85.2-203.98c28.4-21.83,60.98-35.06,96.64-39.68
		c12.44-1.61,25.1-1.48,37.66-2.16c0.76-0.04,1.51-0.2,3.74-0.51c-12.29-11.78-23.8-22.82-35.8-34.33
		c7.64-8.02,15.14-15.9,22.9-24.06c26.57,25.34,52.75,50.3,79.2,75.52c-25.3,26.54-50.27,52.72-75.51,79.19
		c-8.14-7.75-15.95-15.19-24.03-22.89c10.97-11.55,21.7-22.84,33.48-35.24c-26.54-1.61-50.83,2.23-74.12,11.4
		c-42.87,16.88-75.27,45.81-95.72,87.19c-39.06,79.04-15.49,177.93,64.45,228.89c74.28,47.36,175.82,34.66,235.41-41.59
		c29.96-38.34,41.63-82.56,35.63-130.74c-5.98-48.05-28.89-87.19-66.77-118.03c7.61-9.79,15.12-19.45,23.24-29.88
		c7.21,6.61,14.55,12.66,21.12,19.46c31.82,32.94,51.79,71.93,58.73,117.32c8.24,53.89-2.04,104.12-31.53,149.94
		c-29.73,46.18-71.75,76.19-124.48,91.22c-14.74,4.2-29.82,6.63-45.19,7.08c-2.19,0.06-4.37,0.65-6.55,1
		C254.32,494.91,251.45,494.91,248.58,494.91z"/>
	<path class="st0" d="M273.27,366.68c0,7.26,0,14.09,0,21.45c-2,0.14-3.68,0.35-5.36,0.36c-7.5,0.04-15.01-0.26-22.49,0.12
		c-4.6,0.23-5.84-1.52-5.51-5.75c0.29-3.81-0.02-7.66,0.08-11.48c0.07-2.7-0.92-3.88-3.76-4.32c-13.76-2.12-26.47-6.84-37.27-15.97
		c-7.83-6.61-13.33-14.83-17.48-24.81c10.29-4.38,20.31-8.65,30.26-12.88c15.5,22.32,42.94,30.16,66.02,19
		c2.4-1.16,4.73-2.71,6.68-4.53c7.31-6.8,6.66-18.61-2.18-23.05c-7.24-3.63-15.46-5.65-23.46-7.36c-11.65-2.49-23.65-3.4-35.22-6.16
		c-15.92-3.8-28.42-12.41-32.9-29.24c-6.43-24.15,5.26-46.35,28.95-55.31c5.18-1.96,10.59-3.47,16.02-4.56
		c3.45-0.69,4.48-2.23,4.37-5.47c-0.17-4.73-0.04-9.48-0.04-14.5c11.28,0,21.9,0,33.22,0c0,4.95,0.19,9.84-0.07,14.71
		c-0.17,3.33,0.9,4.75,4.3,5.43c14.2,2.83,26.49,9.11,35.24,21.07c2.51,3.43,4.56,7.21,7.16,11.37
		c-9.31,4.34-18.05,8.48-26.89,12.38c-0.76,0.33-2.61-0.73-3.36-1.64c-9.31-11.39-22.03-14.9-35.83-14.55
		c-7,0.18-14.16,1.93-20.86,4.14c-6.16,2.03-9.82,7-9.45,13.98c0.35,6.67,4.93,10.1,10.58,11.39c10.37,2.35,20.9,3.99,31.4,5.71
		c13.21,2.16,26.41,4.25,38.33,10.93c17.41,9.76,22.9,27.17,20.76,45.28c-2.93,24.82-22.63,38.24-44.08,42.89
		C278.24,365.77,276.05,366.14,273.27,366.68z"/>
</g>
</svg>
