<?xml version="1.0" encoding="utf-8"?>
<!-- Generator: Adobe Illustrator 27.5.0, SVG Export Plug-In . SVG Version: 6.00 Build 0)  -->
<svg version="1.1" id="Camada_1" xmlns="http://www.w3.org/2000/svg" xmlns:xlink="http://www.w3.org/1999/xlink" x="0px" y="0px"
	 viewBox="0 0 500 500" style="enable-background:new 0 0 500 500;" xml:space="preserve">
<style type="text/css">
	.st0{fill:#6D26C2;}
</style>
<g>
	<path class="st0" d="M437.78,133.15c-2.08,5.5-3.56,11.32-6.37,16.41c-4.57,8.3-10.02,16.12-15.07,24.16
		c-3.49,5.56-1.28,10.87,5.04,12.33c9.55,2.2,19.14,4.26,28.62,6.74c14.06,3.67,23,14.93,23.18,29.46c0.23,18.5,0.24,37.01,0,55.51
		c-0.19,14.89-9.68,26.39-24.08,29.85c-9.69,2.33-19.41,4.56-29.1,6.87c-5.19,1.24-7.53,6.88-4.68,11.43
		c4.96,7.9,10.03,15.73,15,23.62c9.05,14.36,7.61,28.4-4.23,40.41c-12.06,12.22-24.17,24.39-36.32,36.51
		c-12.51,12.48-26.52,13.94-41.62,4.43c-7.75-4.88-15.47-9.82-23.24-14.67c-4.51-2.81-10.33-0.38-11.54,4.8
		c-2.08,8.9-4.09,17.81-6.1,26.73c-3.7,16.44-15.21,25.77-32.01,25.82c-17.17,0.04-34.33,0.04-51.5,0
		c-17.02-0.03-28.27-8.88-32.31-25.42c-2.24-9.2-4.32-18.44-6.53-27.65c-1.35-5.62-6.81-7.8-11.73-4.7
		c-7.75,4.88-15.45,9.85-23.2,14.74c-14.8,9.33-28.78,7.78-41.18-4.56c-12.05-12-24.08-24.01-36.07-36.06
		c-12.25-12.31-13.74-26.46-4.42-41.23c4.88-7.75,9.8-15.48,14.65-23.25c3.07-4.92,0.75-10.53-4.83-11.82
		c-9.71-2.25-19.47-4.28-29.11-6.78c-14.04-3.64-23.02-14.98-23.18-29.46c-0.21-18.33-0.22-36.67,0-55.01
		c0.18-15.14,10.08-26.82,25.01-30.18c8.91-2.01,17.82-4.01,26.74-6.01c7.21-1.62,9.31-6.78,5.3-13.11
		c-4.73-7.46-9.5-14.89-14.19-22.36c-9.17-14.6-7.62-28.43,4.6-40.74c12.21-12.3,24.44-24.59,36.72-36.83
		c11.43-11.39,25.35-13.11,39.13-4.87c8.29,4.96,16.49,10.06,24.76,15.04c5,3.01,10.48,0.68,11.79-4.95
		c2.27-9.71,4.31-19.47,6.81-29.11c3.64-14.02,14.99-22.98,29.49-23.14c18.16-0.2,36.33-0.18,54.5-0.01
		c14.93,0.14,26.32,9.22,30.03,23.81c2.45,9.66,4.52,19.42,6.79,29.12c1.29,5.5,7.04,7.89,11.83,4.88
		c7.89-4.97,15.72-10.04,23.6-15.02c14.1-8.92,28.22-7.56,40.05,3.99c12.77,12.45,25.43,25.01,38.14,37.52
		c6.22,6.12,9.78,13.38,9.53,22.27C436.92,132.82,437.35,132.99,437.78,133.15z M404.74,133.93c-0.5-0.82-0.69-1.3-1.03-1.64
		c-11.79-11.78-23.64-23.5-35.33-35.37c-2.32-2.36-3.97-1.35-6.03,0.03c-9.69,6.49-19.43,12.9-29.12,19.39
		c-5.62,3.76-11.3,4.11-17.47,1.21c-6.01-2.83-12.15-5.43-18.39-7.67c-6.36-2.29-10.31-6.27-11.74-12.97
		c-2.54-11.86-5.41-23.65-7.89-35.52c-0.78-3.71-2.25-5.18-6.26-5.04c-15.15,0.54-30.31,0.84-45.47,0.91
		c-3.82,0.02-5.17,1.36-5.79,4.96c-1.89,10.97-4.14,21.87-6.18,32.82c-1.34,7.2-5.34,11.86-12.34,14.3
		c-6.11,2.13-12.12,4.63-17.99,7.34c-6.28,2.9-12.09,2.8-17.95-1.02c-9.77-6.36-19.73-12.43-29.43-18.89c-3-2-4.74-1.61-7.15,0.88
		c-10.68,11-21.5,21.87-32.44,32.62c-2.5,2.45-2.77,4.19-0.7,7.15c6.77,9.69,13.2,19.62,19.78,29.44c3.65,5.44,4,11.03,1.3,17.02
		c-2.73,6.06-5.34,12.19-7.63,18.42c-2.26,6.16-6.25,9.96-12.72,11.36c-11.69,2.54-23.3,5.4-35.01,7.82c-4,0.83-5.87,2.12-5.68,6.74
		c0.62,14.98,0.89,29.99,0.92,44.98c0.01,4.16,1.75,5.3,5.37,5.93c10.8,1.89,21.54,4.13,32.32,6.13
		c7.19,1.34,11.91,5.25,14.35,12.27c2.13,6.11,4.6,12.13,7.34,18c3.03,6.47,2.77,12.41-1.15,18.41
		c-6.38,9.76-12.5,19.68-18.89,29.44c-1.65,2.51-1.64,4.15,0.64,6.37c11.1,10.82,22.11,21.73,32.94,32.81
		c2.7,2.76,4.59,2.62,7.57,0.56c9.58-6.64,19.39-12.95,29.05-19.47c5.63-3.79,11.31-4.06,17.45-1.22
		c5.88,2.71,11.87,5.24,17.96,7.43c6.19,2.23,10.01,6.18,11.42,12.65c2.61,12.01,5.45,23.98,8.02,36c0.74,3.46,2.16,4.89,5.98,4.76
		c15.48-0.53,30.98-0.83,46.47-0.92c3.7-0.02,4.38-1.95,4.89-4.77c1.97-10.96,4.11-21.88,5.99-32.86c1.19-6.93,5-11.28,11.57-13.68
		c6.24-2.28,12.36-4.9,18.45-7.56c5.95-2.59,11.59-2.43,17.11,1.12c7.42,4.78,14.86,9.52,22.33,14.23
		c3.79,2.39,7.93,6.85,11.42,6.42c3.74-0.46,7-5.47,10.3-8.68c9.78-9.52,19.46-19.13,29.35-28.87
		c-7.52-11.3-14.52-22.02-21.76-32.58c-4.08-5.94-4.56-11.79-1.42-18.3c2.81-5.83,5.35-11.83,7.49-17.93
		c2.32-6.61,6.52-10.5,13.39-11.95c11.86-2.5,23.67-5.27,35.5-7.93c2.49-0.56,4.67-0.96,4.58-4.56c-0.37-15.33-0.57-30.66-0.59-46
		c-0.01-3.8-1.75-5.13-5.11-5.86c-11.85-2.56-23.65-5.34-35.49-7.97c-6.07-1.35-9.89-5.08-12.03-10.82
		c-1.91-5.14-3.43-10.53-6.11-15.26c-4.99-8.81-3.96-16.44,1.77-24.55C392.35,154.25,398.41,143.89,404.74,133.93z"/>
	<path class="st0" d="M270.28,335.4c0,7.1,0,14.37,0,22.29c-11.12,0-21.73,0.08-32.32-0.16c-0.82-0.02-2.18-2.19-2.29-3.45
		c-0.31-3.64-0.12-7.32-0.13-10.99c-0.01-7.25-0.01-7.23-7.11-8.4c-12.88-2.12-24.54-7.03-34.76-15.25
		c-8.65-6.95-14.62-15.79-19.22-26.64c10.61-4.53,21.06-9,31.95-13.65c6.26,13.85,17.88,20.29,31.73,23.35
		c12.68,2.79,25.14,1.88,37.11-3.43c1.8-0.8,3.51-1.93,5.04-3.17c10.23-8.26,9.19-22.03-2.96-26.94
		c-9.25-3.74-19.46-5.19-29.31-7.37c-12.45-2.76-25.31-4.16-37.37-8.07c-16.41-5.31-26.03-17.44-27.81-34.94
		c-2.05-20.1,4.96-36.27,22.86-46.2c7.71-4.28,16.57-6.64,25.14-9.1c3.71-1.07,4.9-2.5,4.76-6.07c-0.19-4.8-0.05-9.61-0.05-14.79
		c11.73,0,22.94,0,34.69,0c0,5.32,0.16,10.45-0.06,15.56c-0.14,3.26,0.93,4.66,4.26,5.33c14.81,2.97,27.7,9.42,36.87,21.88
		c2.64,3.59,4.8,7.53,7.39,11.63c-1.48,0.92-2.5,1.7-3.63,2.23c-5.26,2.49-10.73,4.61-15.78,7.46c-6.1,3.44-10.24,4.41-16.14-2.04
		c-8.55-9.35-21.03-11.96-33.51-11.21c-7.33,0.44-14.68,2.33-21.76,4.45c-2.86,0.86-5.57,3.69-7.38,6.29
		c-4.66,6.71-2.92,14.94,4.58,18.05c7.1,2.94,14.88,4.42,22.48,5.94c13.01,2.61,26.31,4,39.14,7.26
		c17.96,4.57,31.74,14.52,36.17,33.92c6.28,27.5-7.89,52.51-34.85,61.38C282.38,332.4,276.55,333.7,270.28,335.4z"/>
</g>
</svg>
