<?xml version="1.0" encoding="utf-8"?>
<!-- Generator: Adobe Illustrator 27.5.0, SVG Export Plug-In . SVG Version: 6.00 Build 0)  -->
<svg version="1.1" id="Camada_1" xmlns="http://www.w3.org/2000/svg" xmlns:xlink="http://www.w3.org/1999/xlink" x="0px" y="0px"
	 viewBox="0 0 500 500" style="enable-background:new 0 0 500 500;" xml:space="preserve">
<style type="text/css">
	.st0{fill:#6D26C2;}
</style>
<g>
	<path class="st0" d="M307.91,351.26c2.1,9.69,4.09,18.55,5.93,27.45c0.91,4.37,2.41,8.85,2.16,13.19
		c-0.53,9.08-7.62,15.32-17.21,15.37c-32.84,0.16-65.68,0.22-98.51-0.02c-12-0.09-19.02-9.5-16.58-21.28
		c2.05-9.92,4.26-19.81,6.38-29.71c0.3-1.41,0.5-2.84,0.86-4.99c-2.51,0-4.46,0-6.41,0c-30.17,0-60.34,0.01-90.51,0
		c-15.13,0-21.22-6.11-21.22-21.26c0-72.33,0-144.66,0-216.99c0-14.74,6.24-20.97,20.99-20.97c103.85,0,207.69,0,311.54,0
		c14.7,0,20.95,6.27,20.95,21.02c0,72.33,0,144.66,0,216.99c0,15.1-6.12,21.2-21.28,21.21c-30.17,0.01-60.34,0-90.51,0
		C312.54,351.26,310.6,351.26,307.91,351.26z M106.1,125.6c-0.14,2.5-0.39,4.79-0.39,7.07c-0.02,41.33-0.02,82.67-0.01,124
		c0,6.84,0.01,6.86,6.79,6.86c91.18,0,182.37,0.01,273.55-0.01c2.13,0,4.25-0.25,6.41-0.38c0-46.11,0-91.81,0-137.54
		C296.83,125.6,201.68,125.6,106.1,125.6z M392.92,296.69c-95.75,0-191.04,0-286.78,0c0,7.12,0,13.98,0,21.07
		c95.74,0,191.04,0,286.78,0C392.92,310.65,392.92,303.79,392.92,296.69z M278.97,373.66c-1.54-6.88-2.84-13.36-4.54-19.73
		c-0.29-1.1-2.27-2.47-3.49-2.49c-14.31-0.17-28.61-0.15-42.92-0.05c-1.14,0.01-3.09,0.69-3.27,1.41
		c-1.73,6.81-3.15,13.7-4.73,20.86C240.06,373.66,259.26,373.66,278.97,373.66z"/>
</g>
</svg>
