<?xml version="1.0" encoding="utf-8"?>
<!-- Generator: Adobe Illustrator 27.5.0, SVG Export Plug-In . SVG Version: 6.00 Build 0)  -->
<svg version="1.1" id="Camada_1" xmlns="http://www.w3.org/2000/svg" xmlns:xlink="http://www.w3.org/1999/xlink" x="0px" y="0px"
	 viewBox="0 0 500 500" style="enable-background:new 0 0 500 500;" xml:space="preserve">
<style type="text/css">
	.st0{fill:#6D26C2;}
</style>
<g>
	<path class="st0" d="M60.57,249.7c0-59.65-0.03-119.3,0.02-178.95c0.02-16.92,7.87-30.35,19.8-41.51
		c11.8-11.04,26.14-16.19,42.29-16.2c63.48-0.01,126.97-0.02,190.45,0.02c6.19,0,11.41,2.03,16.1,6.57
		c33.51,32.43,67.15,64.74,100.96,96.85c5.75,5.46,8.31,11.33,8.29,19.29c-0.17,95.47-0.61,190.95,0.16,286.42
		c0.26,31.81-21.39,55.84-46.27,62.2c-5.57,1.42-11.51,1.91-17.28,1.91c-83.81,0.12-167.62-0.02-251.43,0.13
		c-32.33,0.06-56.06-21.53-62.29-48.89c-1.2-5.26-0.91-10.92-0.92-16.39c-0.06-57.15-0.04-114.3-0.04-171.46
		C60.47,249.7,60.52,249.7,60.57,249.7z M297.67,48.39c-2.82,0-4.79,0-6.77,0c-55.65,0-111.31,0.29-166.96-0.19
		c-15.99-0.14-28.87,10.13-28.86,28.91c0.07,115.14,0.02,230.28,0.05,345.42c0,17.86,10.76,28.48,28.67,28.48
		c83.48,0.01,166.96-0.11,250.44,0.09c18.73,0.05,29.36-11.04,29.38-29.44c0.08-88.81,0.04-177.62,0.02-266.43
		c0-1.76-0.18-3.53-0.31-5.75c-2.3,0-4.1,0-5.9,0c-13.33-0.01-26.67,0.24-39.99-0.16c-5.74-0.17-11.73-0.88-17.12-2.74
		c-25.41-8.75-42.84-31.55-42.67-60.05C297.73,74.07,297.67,61.61,297.67,48.39z M377.14,114.23
		c-14.99-14.45-29.21-28.16-43.92-42.34C329.11,105.03,343.2,118.18,377.14,114.23z"/>
	<path class="st0" d="M269.87,267.36c12.89,7.75,25.24,15.28,37.74,22.55c1.23,0.71,3.53,0.25,5.07-0.36
		c10.06-3.96,20.02-8.17,30.06-12.17c7.13-2.84,13.04-0.75,15.45,5.25c2.45,6.12-0.28,11.57-7.38,14.57
		c-5.77,2.44-11.58,4.78-18.55,7.64c6.87,4.15,12.69,7.56,18.39,11.16c4.36,2.75,6.48,6.79,5.18,11.93
		c-1.17,4.62-4.43,7.73-9.17,7.92c-2.77,0.11-5.83-1.07-8.37-2.41c-5.52-2.93-10.8-6.34-17.16-10.14
		c0.68,6.35,1.52,11.42,1.67,16.52c0.11,3.89,0.21,8.15-1.24,11.6c-1.7,4.04-5.85,5.8-10.48,5.03c-4.76-0.79-8.02-3.56-8.73-8.35
		c-1.11-7.56-1.81-15.19-2.62-22.8c-0.44-4.14-0.63-8.3-1.22-12.42c-0.22-1.52-0.82-3.59-1.94-4.29
		c-11.85-7.37-23.85-14.51-36.56-22.17c-0.26,2.15-0.56,3.52-0.56,4.9c-0.04,12-0.17,24,0.12,35.99c0.05,2.09,1.39,4.8,3.03,6.1
		c8.46,6.74,17.22,13.12,25.86,19.63c6.06,4.57,7.43,10.66,3.61,15.99c-3.75,5.23-10.19,5.73-16.3,1.2
		c-5.04-3.73-10.03-7.52-16.38-12.29c0,8.36,0.13,15.26-0.04,22.14c-0.17,6.67-4.84,10.79-11.39,10.41
		c-5.32-0.31-9.2-3.99-9.55-9.67c-0.33-5.31-0.13-10.66-0.21-15.99c-0.02-1.77-0.17-3.53-0.33-6.53
		c-5.86,4.41-10.61,8.51-15.9,11.74c-2.89,1.77-6.72,2.97-10.06,2.83c-4.29-0.18-7.11-3.57-8.11-7.78
		c-1.11-4.69,0.71-8.5,4.51-11.36c8.65-6.51,17.24-13.1,26.02-19.43c2.87-2.07,4.01-4.34,3.95-7.89
		c-0.21-11.33-0.07-22.66-0.09-33.99c0-1.62-0.17-3.24-0.29-5.42c-1.51,0.61-2.58,0.89-3.5,1.43c-10.57,6.33-21.2,12.57-31.59,19.18
		c-1.75,1.11-3.28,3.74-3.55,5.84c-1.33,10.4-2.14,20.86-3.27,31.28c-0.25,2.28-0.75,4.65-1.74,6.69c-2.07,4.27-6.99,6.2-11.9,5.1
		c-4.53-1.02-7.97-4.82-7.79-9.7c0.27-7.44,1.1-14.86,1.77-23.32c-6.19,3.66-11.62,7.1-17.28,10.11c-2.39,1.28-5.29,2.41-7.9,2.3
		c-4.73-0.19-8.08-3.1-9.3-7.76c-1.21-4.65,0.28-8.68,4.26-11.39c4.12-2.8,8.49-5.25,12.75-7.86c1.82-1.12,3.62-2.27,6.44-4.05
		c-6.97-2.9-13.05-5.36-19.07-7.97c-5.85-2.54-8.55-7.43-7.15-12.64c1.78-6.63,7.76-9.89,14.4-7.34
		c10.56,4.05,20.95,8.53,31.5,12.62c1.64,0.64,4.12,0.94,5.49,0.14c12.37-7.17,24.57-14.62,37.54-22.41
		c-9.5-5.76-18.91-10.49-27.15-16.74c-8.67-6.57-16.55-6.84-25.83-1.83c-6.55,3.54-13.74,5.91-20.72,8.62
		c-6.45,2.5-12.28,0.25-14.63-5.36c-2.5-5.98,0.03-11.6,6.68-14.46c5.91-2.54,11.89-4.93,19.04-7.88
		c-6.33-3.85-11.83-6.81-16.86-10.43c-2.69-1.93-5.35-4.69-6.58-7.67c-1.62-3.93-0.02-7.93,3.41-10.69
		c3.55-2.85,7.59-3.47,11.65-1.22c4.8,2.66,9.45,5.6,14.18,8.39c1.4,0.83,2.85,1.57,5.21,2.87c-0.48-5.22-0.91-9.56-1.28-13.9
		c-0.25-2.98-0.63-5.98-0.6-8.96c0.06-5.34,4.03-9.63,9.1-10.18c5.72-0.62,10.57,2.29,11.52,7.94c1.37,8.19,2.02,16.5,2.94,24.77
		c0.42,3.8,0.56,7.65,1.17,11.42c0.24,1.48,1.05,3.39,2.21,4.11c11.73,7.26,23.58,14.32,36.22,21.92c0.23-2.33,0.5-3.87,0.5-5.42
		c0.04-11.66-0.11-23.33,0.1-34.99c0.06-3.45-1.31-5.48-3.93-7.39c-8.47-6.19-16.83-12.53-25.2-18.86
		c-6.12-4.63-7.41-10.7-3.48-15.97c3.92-5.26,10.12-5.72,16.31-1.14c5.02,3.71,9.98,7.49,16.26,12.2c0-8.23-0.15-14.99,0.04-21.73
		c0.18-6.21,3.72-10.17,9.06-10.72c6.68-0.69,11.78,3.55,11.97,10.29c0.19,6.8,0.04,13.62,0.04,21.15c1.64-0.72,2.72-0.98,3.54-1.59
		c4.43-3.25,8.76-6.64,13.2-9.89c5.89-4.3,12.2-3.71,15.91,1.39c3.76,5.16,2.55,11.43-3.11,15.71
		c-8.63,6.53-17.25,13.08-26.01,19.45c-2.54,1.85-3.61,3.86-3.56,7.05c0.18,11.66,0.06,23.33,0.08,34.99c0,1.46,0.18,2.91,0.31,4.94
		c1.6-0.67,2.83-1.02,3.89-1.65c10.43-6.24,20.92-12.38,31.15-18.93c1.86-1.19,3.44-4.02,3.73-6.28
		c1.36-10.56,2.16-21.19,3.27-31.78c0.76-7.25,5.26-11.37,11.71-10.96c6.14,0.39,10.18,5.48,9.69,12.67
		c-0.44,6.44-1.25,12.85-2.02,20.57c6.6-3.93,12.26-7.26,17.88-10.67c4.03-2.45,8.08-3.03,12.18-0.36
		c6.65,4.33,6.7,13.26-0.08,17.97c-4.23,2.94-8.8,5.38-13.21,8.07c-1.52,0.93-3.01,1.91-5.49,3.49c7.17,2.99,13.45,5.49,19.63,8.22
		c4.5,1.99,7.24,5.61,6.85,10.58c-0.38,4.88-3.16,8.63-8.13,9.53c-2.59,0.47-5.66-0.07-8.17-1.03c-9.94-3.8-19.79-7.86-29.59-12.01
		c-2.71-1.15-4.81-1.05-7.38,0.55c-10.31,6.43-20.79,12.6-31.19,18.88C273.07,265.15,271.75,266.1,269.87,267.36z"/>
</g>
</svg>
