<?xml version="1.0" encoding="utf-8"?>
<!-- Generator: Adobe Illustrator 27.5.0, SVG Export Plug-In . SVG Version: 6.00 Build 0)  -->
<svg version="1.1" id="Camada_1" xmlns="http://www.w3.org/2000/svg" xmlns:xlink="http://www.w3.org/1999/xlink" x="0px" y="0px"
	 viewBox="0 0 500 500" style="enable-background:new 0 0 500 500;" xml:space="preserve">
<style type="text/css">
	.st0{fill:#6D26C2;stroke:#6D26C2;stroke-width:5;stroke-miterlimit:10;}
	.st1{fill:none;stroke:#6D26C2;stroke-width:29;stroke-miterlimit:10;}
</style>
<g>
	<path class="st0" d="M301,214.2c-2.8-1-5.7-1.7-8.2-3.2c-11.8-6.9-23.5-13.8-35.1-21c-3.1-1.9-5.3-2.1-8.5-0.1
		c-11.6,7.2-23.4,14-35.1,21.1c-5.5,3.3-11,3.8-16.4,0.2c-4.9-3.2-6.4-8.7-4.9-15.5c3-13.1,5.8-26.2,9.1-39.3c1.1-4.3,0-6.9-3.4-9.7
		c-10.2-8.5-20-17.6-30.1-26.2c-5.2-4.4-7-9.8-4.9-16c2.1-6.2,7.2-8.5,13.6-9c13.9-1,27.8-2.4,41.7-4c1.9-0.2,4.2-2.4,5.1-4.3
		c5.6-12.4,10.9-24.9,16.1-37.5c2.5-6,6.3-10.1,13.3-10.1c7-0.1,10.9,3.9,13.4,10c5.4,12.7,10.9,25.3,16.2,38c1.2,2.8,2.7,4,5.8,4.3
		c14.4,1.1,28.8,2.5,43.2,3.9c5.6,0.6,9.6,3.6,11.5,9c2.1,6,0.2,11.1-4.4,15.2c-10.5,9.3-20.9,18.6-31.6,27.6
		c-2.9,2.4-3.4,4.8-2.6,8.1c3.2,13.4,6.2,26.8,9.3,40.3C316.3,205.8,310.7,213.6,301,214.2z M315.1,115c-0.1-0.4-0.3-0.8-0.4-1.2
		c-9.4-0.8-18.8-2.1-28.2-2.3c-10.4-0.3-17.8-3.9-21-14.6c-1.9-6.2-4.9-12-7.5-17.9c-1.4-3.2-2.9-6.4-4.7-10.4
		c-4.4,10.2-8.9,19.1-12,28.5c-3.5,10.4-10.5,14.3-20.7,14.3c-0.7,0-1.3,0-2,0.1c-8.9,0.8-17.7,1.6-27.4,2.5c1.3,1.5,2,2.3,2.8,3.1
		c7.7,6.8,15.4,13.8,23.3,20.4c4.9,4.1,6.4,9.1,5.3,15.1c-0.4,2.1-0.9,4.2-1.4,6.3c-2.1,9.3-4.2,18.6-6.5,29.2
		c10.9-6.5,20.7-12.1,30.2-18.1c5.9-3.6,11.4-3.6,17.2,0c8.5,5.2,17.1,10.3,25.7,15.4c1.1,0.7,2.4,1.1,4.4,2.1
		c-2.4-10.4-4-19.9-6.8-29.1c-3-10-1.3-18,7.6-23.9c1.1-0.7,2-1.7,3-2.6C302.4,126.2,308.8,120.6,315.1,115z"/>
	<path class="st0" d="M99.9,94.6c5.2-0.3,8.4,2.6,10.3,7c3.4,7.8,6.9,15.5,10,23.4c1.2,3.2,3.2,4.4,6.3,4.6
		c8.3,0.7,16.5,1.5,24.8,2.1c5.2,0.4,9.1,2.5,10.8,7.4c1.6,4.7-0.1,8.8-3.9,12c-6.3,5.4-12.3,11.2-18.9,16.3
		c-3.1,2.4-3.4,4.9-2.6,8.2c1.8,7.6,3.4,15.2,5.3,22.8c1.3,5.2,1.2,10.1-3.7,13.4c-4.5,3-9.1,2.1-13.6-0.6c-7-4.2-14.1-8.2-21-12.6
		c-2.7-1.7-4.7-1.7-7.2-0.1c-7.2,4.5-14.6,8.7-21.9,13c-4.4,2.6-9,3.1-13.1,0c-3.9-2.9-5.1-6.9-3.7-12c2.2-8.1,3.6-16.5,5.7-24.7
		c0.8-3.1,0.2-5-2.2-6.9c-6.2-5.2-12.3-10.7-18.5-16c-4.7-4-6.4-8.8-4.5-13.6c1.9-5,6.1-6.5,11.1-6.8c8-0.5,15.9-1.3,23.8-2
		c3.2-0.3,5.4-1.5,6.7-4.8c2.9-7.6,6.3-15,9.5-22.5C91.3,97.7,94.3,94.4,99.9,94.6z M123.6,191.8c-1.4-6.5-2.1-12-3.8-17.3
		c-2.3-7.4,0.4-12.4,6.2-16.8c4-3.1,7.6-6.7,12.2-10.9c-6.4-0.6-11.5-1.5-16.5-1.4c-7.6,0.1-12.2-3.2-14.8-10.1
		c-1.9-5-4.2-9.9-6.9-16.2c-2.9,6.5-5.5,11.7-7.5,17.1c-2.3,6.4-6.8,8.9-13.3,9.1c-5.4,0.2-10.8,0.9-17.7,1.4
		c4.9,4.4,8.6,8.2,12.8,11.2c6.6,4.7,7.5,10.7,5.5,18c-1.3,4.8-2.2,9.8-3.5,15.8c6.4-3.7,11.7-6.7,17-9.9c4.6-2.8,9-2.7,13.6,0.1
		C112.1,185.1,117.4,188.1,123.6,191.8z"/>
	<path class="st0" d="M368.4,225.7c-8.6,0.1-13.4-5.8-11.8-12.9c1.9-8.6,3.7-17.2,5.9-25.7c0.8-3.1,0.2-5-2.1-6.9
		c-6.2-5.2-12.3-10.7-18.5-16c-4.7-4-6.4-8.7-4.6-13.6c1.9-5,6-6.5,11.1-6.8c7.8-0.5,15.5-1.3,23.3-2c3.6-0.3,6-1.6,7.4-5.3
		c2.8-7.3,6-14.4,9.1-21.6c2-4.8,4.9-8.2,10.6-8.3c5.7-0.1,8.8,3.1,10.8,8c3.1,7.4,6.5,14.6,9.4,22c1.3,3.4,3.4,4.9,6.9,5.2
		c8.1,0.6,16.2,1.5,24.3,2c5.2,0.4,9.1,2.5,10.8,7.4c1.6,4.7,0,8.8-3.8,12c-6.3,5.4-12.3,11.2-18.9,16.3c-3.1,2.4-3.5,4.9-2.7,8.1
		c1.8,7.6,3.5,15.2,5.3,22.8c1.3,5.2,1.2,10.1-3.7,13.4c-4.5,3-9.1,2.1-13.6-0.6c-6.7-4.1-13.6-7.7-20.1-12.1
		c-3.5-2.4-6.1-2-9.4,0.2c-6.7,4.3-13.7,8.3-20.6,12.2C371.6,224.7,369.3,225.3,368.4,225.7z M375.4,203.8c5.4-3.1,10-5.4,14.1-8.4
		c6.4-4.5,12.4-4.7,18.8-0.1c4.2,3,8.9,5.4,14.5,8.6c-1.3-5.8-2.1-10.4-3.5-14.8c-2.7-8.5-1-15.1,6.7-20.3c3.8-2.6,7-6.1,11.2-10
		c-6.1-0.6-10.7-1.6-15.3-1.4c-9,0.5-13.9-3.8-16.8-11.8c-1.6-4.5-3.8-8.9-6.2-14.5c-2.9,6.6-5.5,11.6-7.4,16.9
		c-2.4,6.6-7,9.1-13.7,9.3c-5.3,0.1-10.7,0.9-17.3,1.5c5.6,5,10,9.3,14.7,13.1c3.9,3.1,5,6.9,4.2,11.4
		C378.4,189.6,377,195.9,375.4,203.8z"/>
</g>
<g>
	<path class="st1" d="M257.6,248.1c4.5,1.1,9.1,1.7,13.4,3.4c17.8,7.1,28.5,20.2,31.3,39.2c3.5,24.2-10.7,46.5-34,54.1
		c-26.5,8.6-55.7-7.5-62.6-34.4c-6.6-25.9,7.5-51.8,32.9-59.9c3.5-1.1,7.1-1.6,10.7-2.3C252,248.1,254.8,248.1,257.6,248.1z"/>
	<path class="st1" d="M335.3,460.2c-54.7,0-109.1,0-163.8,0c0-0.8,0-1.6,0-2.3c0-12.8,0-25.7,0-38.5c0.1-20.3,7.5-37.3,23-50.4
		c10.8-9.2,23.4-14.4,37.6-14.7c14.6-0.4,29.3-0.4,43.9,0.1c11.6,0.4,22.1,4.4,31.6,11c13.8,9.7,22.7,22.8,26.2,39.3
		c1,4.5,1.4,9.2,1.5,13.7c0.2,13.5,0.1,26.9,0.1,40.4C335.4,459.2,335.3,459.6,335.3,460.2z"/>
</g>
</svg>
