<?xml version="1.0" encoding="utf-8"?>
<!-- Generator: Adobe Illustrator 27.5.0, SVG Export Plug-In . SVG Version: 6.00 Build 0)  -->
<svg version="1.1" id="Camada_1" xmlns="http://www.w3.org/2000/svg" xmlns:xlink="http://www.w3.org/1999/xlink" x="0px" y="0px"
	 viewBox="0 0 500 500" style="enable-background:new 0 0 500 500;" xml:space="preserve">
<style type="text/css">
	.st0{fill:#6D26C2;}
</style>
<g>
	<path class="st0" d="M442.88,190.13c0,16.67,0.27,33.34-0.06,50c-0.6,29.88-6.92,58.63-18.06,86.32
		c-12.22,30.41-30.38,56.94-53.53,79.99c-21.41,21.31-45.8,38.65-72.94,51.95c-10.73,5.26-21.85,9.76-32.87,14.42
		c-8.84,3.74-17.69,3.44-26.71,0.06c-39.51-14.77-74.95-36.1-105.08-65.71c-32.08-31.53-53.93-69.21-64.88-112.87
		c-4.89-19.5-7.78-39.38-7.62-59.65c0.25-32.5,0.49-65.01-0.15-97.5c-0.33-16.89,11.24-32.11,27.03-37.15
		c48.29-15.4,96.57-30.84,144.64-46.93c13.49-4.52,25.88-4.36,39.3,0.12c47.12,15.73,94.45,30.83,141.76,45.99
		c14.55,4.66,24.81,13.27,28.48,28.53c0.65,2.71,0.71,5.6,0.72,8.41c0.06,18,0.03,36,0.03,54
		C442.92,190.13,442.9,190.13,442.88,190.13z M406.3,190.67c0.01,0,0.03,0,0.04,0c0-16.33-0.24-32.67,0.15-48.99
		c0.12-4.87-1.74-6.71-5.95-8.01c-14.12-4.37-28.18-8.96-42.24-13.55c-33.02-10.76-66.03-21.57-99.04-32.36
		c-4.14-1.35-8.14-1.96-12.58-0.5c-47.99,15.75-96.02,31.37-144.08,46.88c-3.59,1.16-4.94,2.73-4.91,6.62
		c0.18,31.83-0.15,63.66,0.29,95.49c0.15,11.24,1.17,22.61,3.19,33.67c7.84,42.92,27.03,80,58.22,110.81
		c25.9,25.59,56.42,43.72,90.12,56.85c1.53,0.59,3.69,0.61,5.21,0.01c36.74-14.37,69.67-34.51,96.64-63.74
		c36.28-39.33,53.64-86.1,54.9-139.18C406.6,220,406.3,205.33,406.3,190.67z"/>
</g>
</svg>
