<svg width="62" height="62" viewBox="0 0 62 62" fill="none" xmlns="http://www.w3.org/2000/svg">
<rect width="62" height="62" fill="white"/>
<rect width="62" height="62" fill="#28A8E9"/>
<path d="M17.6659 28.838C25.7573 25.3127 31.1529 22.9886 33.8525 21.8657C41.5606 18.6597 43.1623 18.1027 44.2063 18.0842C44.4359 18.0803 44.9492 18.1372 45.2818 18.4071C45.5626 18.6349 45.6399 18.9427 45.6768 19.1587C45.7138 19.3747 45.7598 19.8669 45.7232 20.2514C45.3055 24.6402 43.4981 35.2908 42.5786 40.2064C42.1895 42.2864 41.4234 42.9838 40.6818 43.0521C39.0699 43.2004 37.846 41.9869 36.2848 40.9635C33.842 39.3622 32.4619 38.3653 30.0906 36.8027C27.3503 34.9969 29.1267 34.0043 30.6885 32.3822C31.0972 31.9577 38.199 25.4981 38.3364 24.9121C38.3536 24.8388 38.3696 24.5657 38.2073 24.4214C38.045 24.2772 37.8055 24.3265 37.6326 24.3657C37.3876 24.4213 33.4851 27.0008 25.925 32.104C24.8173 32.8646 23.814 33.2353 22.915 33.2158C21.924 33.1944 20.0176 32.6555 18.6005 32.1948C16.8623 31.6298 15.4808 31.3311 15.6011 30.3715C15.6637 29.8717 16.352 29.3605 17.6659 28.838Z" fill="white"/>
</svg>
